500.ufo
<glyph name="exclam" format="1">
  <advance width="587.150"/>
  <unicode hex="0021"/>
  <outline>
    <contour>
      <point x="255" y="426" type="line"/>
      <point x="339" y="426" type="line"/>
      <point x="394" y="1299" type="line"/>
      <point x="394" y="1456" type="line"/>
      <point x="193" y="1456" type="line"/>
      <point x="193" y="1299" type="line"/>
    </contour>
    <contour>
      <point x="295" y="-11" type="curve" smooth="yes"/>
      <point x="377" y="-11"/>
      <point x="424" y="51"/>
      <point x="424" y="118" type="curve" smooth="yes"/>
      <point x="424" y="184"/>
      <point x="377" y="246"/>
      <point x="295" y="246" type="curve" smooth="yes"/>
      <point x="212" y="246"/>
      <point x="166" y="184"/>
      <point x="166" y="118" type="curve" smooth="yes"/>
      <point x="166" y="52"/>
      <point x="212" y="-11"/>
    </contour>
  </outline>
</glyph>
<glyph name="quotedbl" format="1">
  <advance width="684.600"/>
  <unicode hex="0022"/>
  <outline>
    <contour>
      <point x="151" y="963" type="line"/>
      <point x="265" y="963" type="line"/>
      <point x="293" y="1451" type="line"/>
      <point x="117" y="1451" type="line"/>
    </contour>
    <contour>
      <point x="452" y="963" type="line"/>
      <point x="566" y="963" type="line"/>
      <point x="595" y="1451" type="line"/>
      <point x="418" y="1451" type="line"/>
    </contour>
  </outline>
</glyph>
<glyph name="numbersign" format="1">
  <advance width="1199.050"/>
  <unicode hex="0023"/>
  <outline>
    <contour>
      <point x="234" y="-13" type="line"/>
      <point x="363" y="-13" type="line"/>
      <point x="448" y="428" type="line"/>
      <point x="686" y="428" type="line"/>
      <point x="602" y="-13" type="line"/>
      <point x="731" y="-13" type="line"/>
      <point x="816" y="428" type="line"/>
      <point x="1000" y="428" type="line"/>
      <point x="1016" y="530" type="line"/>
      <point x="836" y="530" type="line"/>
      <point x="915" y="938" type="line"/>
      <point x="1086" y="938" type="line"/>
      <point x="1102" y="1040" type="line"/>
      <point x="935" y="1040" type="line"/>
      <point x="1009" y="1420" type="line"/>
      <point x="879" y="1420" type="line"/>
      <point x="805" y="1040" type="line"/>
      <point x="567" y="1040" type="line"/>
      <point x="641" y="1420" type="line"/>
      <point x="510" y="1420" type="line"/>
      <point x="437" y="1040" type="line"/>
      <point x="253" y="1040" type="line"/>
      <point x="238" y="938" type="line"/>
      <point x="417" y="938" type="line"/>
      <point x="339" y="530" type="line"/>
      <point x="166" y="530" type="line"/>
      <point x="152" y="428" type="line"/>
      <point x="319" y="428" type="line"/>
    </contour>
    <contour>
      <point x="468" y="530" type="line"/>
      <point x="548" y="938" type="line"/>
      <point x="785" y="938" type="line"/>
      <point x="706" y="530" type="line"/>
    </contour>
  </outline>
</glyph>
<glyph name="percent" format="1">
  <advance width="1770.850"/>
  <unicode hex="0025"/>
  <outline>
    <contour>
      <point x="1249" y="1433" type="line"/>
      <point x="421" y="0" type="line"/>
      <point x="571" y="0" type="line"/>
      <point x="1390" y="1433" type="line"/>
    </contour>
    <contour>
      <point x="69" y="1074" type="curve" smooth="yes"/>
      <point x="69" y="865"/>
      <point x="185" y="703"/>
      <point x="412" y="703" type="curve" smooth="yes"/>
      <point x="637" y="703"/>
      <point x="756" y="865"/>
      <point x="756" y="1074" type="curve" smooth="yes"/>
      <point x="756" y="1287"/>
      <point x="640" y="1444"/>
      <point x="412" y="1444" type="curve" smooth="yes"/>
      <point x="188" y="1444"/>
      <point x="69" y="1284"/>
    </contour>
    <contour>
      <point x="623" y="1076" type="curve" smooth="yes"/>
      <point x="623" y="927"/>
      <point x="560" y="811"/>
      <point x="413" y="811" type="curve" smooth="yes"/>
      <point x="265" y="811"/>
      <point x="200" y="924"/>
      <point x="200" y="1076" type="curve" smooth="yes"/>
      <point x="200" y="1223"/>
      <point x="265" y="1338"/>
      <point x="413" y="1338" type="curve" smooth="yes"/>
      <point x="559" y="1338"/>
      <point x="623" y="1229"/>
    </contour>
    <contour>
      <point x="1063" y="358" type="curve" smooth="yes"/>
      <point x="1063" y="149"/>
      <point x="1179" y="-14"/>
      <point x="1406" y="-14" type="curve" smooth="yes"/>
      <point x="1631" y="-14"/>
      <point x="1750" y="149"/>
      <point x="1750" y="358" type="curve" smooth="yes"/>
      <point x="1750" y="570"/>
      <point x="1634" y="728"/>
      <point x="1406" y="728" type="curve" smooth="yes"/>
      <point x="1182" y="728"/>
      <point x="1063" y="567"/>
    </contour>
    <contour>
      <point x="1617" y="359" type="curve" smooth="yes"/>
      <point x="1617" y="211"/>
      <point x="1554" y="94"/>
      <point x="1407" y="94" type="curve" smooth="yes"/>
      <point x="1259" y="94"/>
      <point x="1194" y="207"/>
      <point x="1194" y="359" type="curve" smooth="yes"/>
      <point x="1194" y="507"/>
      <point x="1259" y="621"/>
      <point x="1407" y="621" type="curve" smooth="yes"/>
      <point x="1553" y="621"/>
      <point x="1617" y="512"/>
    </contour>
  </outline>
</glyph>
<glyph name="ampersand" format="1">
  <advance width="1405.800"/>
  <unicode hex="0026"/>
  <outline>
    <contour>
      <point x="442" y="1452"/>
      <point x="271" y="1332"/>
      <point x="271" y="1132" type="curve" smooth="yes"/>
      <point x="271" y="1006"/>
      <point x="331" y="894"/>
      <point x="425" y="791" type="curve"/>
      <point x="268" y="701"/>
      <point x="140" y="588"/>
      <point x="140" y="380" type="curve" smooth="yes"/>
      <point x="140" y="120"/>
      <point x="339" y="-18"/>
      <point x="637" y="-18" type="curve" smooth="yes"/>
      <point x="822" y="-18"/>
      <point x="908" y="18"/>
      <point x="1032" y="110" type="curve"/>
      <point x="1162" y="-17" type="line"/>
      <point x="1336" y="52" type="line"/>
      <point x="1162" y="231" type="line"/>
      <point x="1227" y="300"/>
      <point x="1301" y="415"/>
      <point x="1340" y="499" type="curve"/>
      <point x="1204" y="589" type="line"/>
      <point x="1168" y="513"/>
      <point x="1103" y="406"/>
      <point x="1051" y="350" type="curve"/>
      <point x="681" y="761" type="line"/>
      <point x="856" y="849"/>
      <point x="1012" y="979"/>
      <point x="1012" y="1151" type="curve" smooth="yes"/>
      <point x="1012" y="1355"/>
      <point x="845" y="1452"/>
      <point x="652" y="1452" type="curve" smooth="yes"/>
    </contour>
    <contour>
      <point x="925" y="230" type="line"/>
      <point x="847" y="167"/>
      <point x="770" y="137"/>
      <point x="647" y="137" type="curve" smooth="yes"/>
      <point x="461" y="137"/>
      <point x="334" y="222"/>
      <point x="334" y="389" type="curve" smooth="yes"/>
      <point x="334" y="517"/>
      <point x="411" y="611"/>
      <point x="523" y="676" type="curve"/>
    </contour>
    <contour>
      <point x="768" y="1310"/>
      <point x="831" y="1256"/>
      <point x="831" y="1149" type="curve" smooth="yes"/>
      <point x="831" y="1031"/>
      <point x="710" y="933"/>
      <point x="587" y="872" type="curve"/>
      <point x="492" y="963"/>
      <point x="453" y="1054"/>
      <point x="453" y="1146" type="curve" smooth="yes"/>
      <point x="453" y="1253"/>
      <point x="545" y="1310"/>
      <point x="656" y="1310" type="curve" smooth="yes"/>
    </contour>
  </outline>
</glyph>
<glyph name="quotesingle" format="1">
  <advance width="403.300"/>
  <unicode hex="0027"/>
  <outline>
    <contour>
      <point x="148" y="923" type="line"/>
      <point x="270" y="923" type="line"/>
      <point x="290" y="1426" type="line"/>
      <point x="125" y="1426" type="line"/>
    </contour>
  </outline>
</glyph>
<glyph name="parenleft" format="1">
  <advance width="709.300"/>
  <unicode hex="0028"/>
  <outline>
    <contour>
      <point x="450" y="1529" type="line"/>
      <point x="292" y="1305"/>
      <point x="188" y="1007"/>
      <point x="188" y="680" type="curve" smooth="yes"/>
      <point x="188" y="335"/>
      <point x="289" y="28"/>
      <point x="452" y="-200" type="curve"/>
      <point x="638" y="-200" type="line"/>
      <point x="468" y="74"/>
      <point x="382" y="368"/>
      <point x="382" y="683" type="curve" smooth="yes"/>
      <point x="382" y="996"/>
      <point x="486" y="1296"/>
      <point x="639" y="1529" type="curve"/>
    </contour>
  </outline>
</glyph>
<glyph name="parenright" format="1">
  <advance width="715.350"/>
  <unicode hex="0029"/>
  <outline>
    <contour>
      <point x="106" y="1529" type="line"/>
      <point x="279" y="1248"/>
      <point x="362" y="992"/>
      <point x="362" y="691" type="curve" smooth="yes"/>
      <point x="362" y="364"/>
      <point x="256" y="26"/>
      <point x="106" y="-200" type="curve"/>
      <point x="294" y="-200" type="line"/>
      <point x="449" y="12"/>
      <point x="556" y="343"/>
      <point x="556" y="690" type="curve" smooth="yes"/>
      <point x="556" y="1015"/>
      <point x="459" y="1289"/>
      <point x="294" y="1529" type="curve"/>
    </contour>
  </outline>
</glyph>
<glyph name="asterisk" format="1">
  <advance width="1142.600"/>
  <unicode hex="002A"/>
  <outline>
    <contour>
      <point x="390" y="538" type="line"/>
      <point x="567" y="874" type="line"/>
      <point x="754" y="537" type="line"/>
      <point x="793" y="561"/>
      <point x="876" y="610"/>
      <point x="915" y="634" type="curve"/>
      <point x="852" y="715"/>
      <point x="715" y="894"/>
      <point x="675" y="946" type="curve"/>
      <point x="1024" y="1025" type="line"/>
      <point x="972" y="1204" type="line"/>
      <point x="631" y="1062" type="line"/>
      <point x="665" y="1450" type="line"/>
      <point x="475" y="1450" type="line"/>
      <point x="509" y="1062" type="line"/>
      <point x="171" y="1204" type="line"/>
      <point x="119" y="1025" type="line"/>
      <point x="463" y="946" type="line"/>
      <point x="227" y="634" type="line"/>
    </contour>
  </outline>
</glyph>
<glyph name="plus" format="1">
  <advance width="1079.100"/>
  <unicode hex="002B"/>
  <outline>
    <contour>
      <point x="485" y="1092" type="line"/>
      <point x="485" y="700" type="line"/>
      <point x="105" y="700" type="line"/>
      <point x="105" y="556" type="line"/>
      <point x="484" y="556" type="line"/>
      <point x="484" y="159" type="line"/>
      <point x="637" y="159" type="line"/>
      <point x="637" y="556" type="line"/>
      <point x="1012" y="556" type="line"/>
      <point x="1012" y="700" type="line"/>
      <point x="638" y="700" type="line"/>
      <point x="638" y="1092" type="line"/>
    </contour>
  </outline>
</glyph>
<glyph name="comma" format="1">
  <advance width="497.850"/>
  <unicode hex="002C"/>
  <outline>
    <contour>
      <point x="128" y="-263" type="curve"/>
      <point x="257" y="-263" type="line"/>
      <point x="257" y="-263"/>
      <point x="379" y="169"/>
      <point x="379" y="188" type="curve"/>
      <point x="383" y="234" type="line"/>
      <point x="187" y="234" type="line"/>
      <point x="187" y="187"/>
      <point x="128" y="-263"/>
    </contour>
  </outline>
</glyph>
<glyph name="hyphen" format="1">
  <advance width="674.650"/>
  <unicode hex="002D"/>
  <outline>
    <contour>
      <point x="87" y="467" type="line"/>
      <point x="577" y="467" type="line"/>
      <point x="577" y="618" type="line"/>
      <point x="87" y="618" type="line"/>
    </contour>
    <contour>
      <point x="331" y="543" type="move" name="_mid"/>
    </contour>
  </outline>
</glyph>
<glyph name="period" format="1">
  <advance width="510.300"/>
  <unicode hex="002E"/>
  <outline>
    <contour>
      <point x="269" y="-6" type="curve" smooth="yes"/>
      <point x="348" y="-6"/>
      <point x="393" y="54"/>
      <point x="393" y="118" type="curve" smooth="yes"/>
      <point x="393" y="183"/>
      <point x="348" y="244"/>
      <point x="269" y="244" type="curve" smooth="yes"/>
      <point x="189" y="244"/>
      <point x="144" y="183"/>
      <point x="144" y="118" type="curve" smooth="yes"/>
      <point x="144" y="54"/>
      <point x="191" y="-6"/>
    </contour>
  </outline>
</glyph>
<glyph name="slash" format="1">
  <advance width="933.650"/>
  <unicode hex="002F"/>
  <outline>
    <contour>
      <point x="85" y="-175" type="line"/>
      <point x="240" y="-175" type="line"/>
      <point x="881" y="1414" type="line"/>
      <point x="722" y="1414" type="line"/>
    </contour>
  </outline>
</glyph>
<glyph name="zero" format="1">
  <advance width="1218.450"/>
  <unicode hex="0030"/>
  <outline>
    <contour>
      <point x="629" y="138" type="curve" smooth="yes"/>
      <point x="430" y="138"/>
      <point x="330" y="358"/>
      <point x="330" y="719" type="curve"/>
      <point x="330" y="1065"/>
      <point x="430" y="1286"/>
      <point x="629" y="1286" type="curve" smooth="yes"/>
      <point x="828" y="1286"/>
      <point x="922" y="1082"/>
      <point x="922" y="718" type="curve" smooth="yes"/>
      <point x="922" y="357"/>
      <point x="828" y="138"/>
    </contour>
    <contour>
      <point x="628" y="-25" type="curve" smooth="yes"/>
      <point x="987" y="-25"/>
      <point x="1125" y="301"/>
      <point x="1125" y="712" type="curve" smooth="yes"/>
      <point x="1125" y="1139"/>
      <point x="976" y="1450"/>
      <point x="628" y="1450" type="curve" smooth="yes"/>
      <point x="282" y="1450"/>
      <point x="126" y="1140"/>
      <point x="126" y="712" type="curve" smooth="yes"/>
      <point x="126" y="301"/>
      <point x="270" y="-25"/>
    </contour>
  </outline>
</glyph>
<glyph name="one" format="1">
  <advance width="1203.500"/>
  <unicode hex="0031"/>
  <outline>
    <contour>
      <point x="236" y="0" type="line"/>
      <point x="1079" y="0" type="line"/>
      <point x="1079" y="158" type="line"/>
      <point x="702" y="158" type="line"/>
      <point x="777" y="82" type="line"/>
      <point x="777" y="1433" type="line"/>
      <point x="595" y="1433" type="line"/>
      <point x="517" y="1378"/>
      <point x="357" y="1325"/>
      <point x="260" y="1302" type="curve"/>
      <point x="260" y="1142" type="line"/>
      <point x="375" y="1158"/>
      <point x="548" y="1215"/>
      <point x="617" y="1274" type="curve"/>
      <point x="574" y="1302" type="line"/>
      <point x="574" y="83" type="line"/>
      <point x="648" y="158" type="line"/>
      <point x="236" y="158" type="line"/>
    </contour>
  </outline>
</glyph>
<glyph name="two" format="1">
  <advance width="1203.5"/>
  <unicode hex="0032"/>
  <outline>
    <contour>
      <point x="247" y="1184" type="line"/>
      <point x="329" y="1235"/>
      <point x="450" y="1275"/>
      <point x="561" y="1275" type="curve" smooth="yes"/>
      <point x="677" y="1275"/>
      <point x="822" y="1229"/>
      <point x="822" y="1039" type="curve" smooth="yes"/>
      <point x="822" y="902"/>
      <point x="750" y="806"/>
      <point x="641" y="690" type="curve" smooth="yes"/>
      <point x="153" y="162" type="line"/>
      <point x="171" y="0" type="line"/>
      <point x="1012" y="0" type="line"/>
      <point x="1025" y="158" type="line"/>
      <point x="297" y="158" type="line"/>
      <point x="327" y="90" type="line"/>
      <point x="766" y="553" type="line"/>
      <point x="948" y="746"/>
      <point x="1023" y="863"/>
      <point x="1023" y="1054" type="curve" smooth="yes"/>
      <point x="1023" y="1356"/>
      <point x="770" y="1451"/>
      <point x="580" y="1451" type="curve" smooth="yes"/>
      <point x="424" y="1451"/>
      <point x="265" y="1398"/>
      <point x="170" y="1331" type="curve"/>
      <point x="229" y="1184" type="line"/>
    </contour>
  </outline>
</glyph>
<glyph name="three" format="1">
  <advance width="1203.500"/>
  <unicode hex="0033"/>
  <outline>
    <contour>
      <point x="415" y="1452"/>
      <point x="282" y="1414"/>
      <point x="169" y="1344" type="curve"/>
      <point x="231" y="1197" type="line"/>
      <point x="320" y="1254"/>
      <point x="441" y="1291"/>
      <point x="562" y="1291" type="curve" smooth="yes"/>
      <point x="723" y="1291"/>
      <point x="833" y="1205"/>
      <point x="833" y="1069" type="curve" smooth="yes"/>
      <point x="833" y="872"/>
      <point x="650" y="837"/>
      <point x="449" y="833" type="curve"/>
      <point x="398" y="833" type="line"/>
      <point x="398" y="672" type="line"/>
      <point x="448" y="672" type="line"/>
      <point x="687" y="667"/>
      <point x="864" y="624"/>
      <point x="864" y="393" type="curve" smooth="yes"/>
      <point x="864" y="223"/>
      <point x="740" y="146"/>
      <point x="562" y="146" type="curve" smooth="yes"/>
      <point x="441" y="146"/>
      <point x="322" y="185"/>
      <point x="237" y="237" type="curve"/>
      <point x="173" y="94" type="line"/>
      <point x="268" y="31"/>
      <point x="413" y="-23"/>
      <point x="580" y="-23" type="curve" smooth="yes"/>
      <point x="862" y="-23"/>
      <point x="1070" y="124"/>
      <point x="1070" y="388" type="curve" smooth="yes"/>
      <point x="1070" y="581"/>
      <point x="958" y="718"/>
      <point x="787" y="758" type="curve"/>
      <point x="941" y="805"/>
      <point x="1033" y="908"/>
      <point x="1033" y="1083" type="curve" smooth="yes"/>
      <point x="1033" y="1311"/>
      <point x="827" y="1452"/>
      <point x="574" y="1452" type="curve" smooth="yes"/>
    </contour>
  </outline>
</glyph>
<glyph name="four" format="1">
  <advance width="1203.500"/>
  <unicode hex="0034"/>
  <outline>
    <contour>
      <point x="754" y="0" type="line"/>
      <point x="950" y="0" type="line"/>
      <point x="950" y="347" type="line"/>
      <point x="1113" y="347" type="line"/>
      <point x="1126" y="505" type="line"/>
      <point x="950" y="505" type="line"/>
      <point x="950" y="1433" type="line"/>
      <point x="724" y="1433" type="line"/>
      <point x="108" y="511" type="line"/>
      <point x="108" y="347" type="line"/>
      <point x="754" y="347" type="line"/>
    </contour>
    <contour>
      <point x="311" y="504" type="line"/>
      <point x="753" y="1195" type="line"/>
      <point x="753" y="504" type="line"/>
    </contour>
  </outline>
</glyph>
<glyph name="five" format="1">
  <advance width="1203.500"/>
  <unicode hex="0035"/>
  <outline>
    <contour>
      <point x="260" y="1433" type="line"/>
      <point x="216" y="657" type="line"/>
      <point x="371" y="635" type="line"/>
      <point x="433" y="702"/>
      <point x="525" y="739"/>
      <point x="613" y="739" type="curve" smooth="yes"/>
      <point x="793" y="739"/>
      <point x="879" y="616"/>
      <point x="879" y="455" type="curve" smooth="yes"/>
      <point x="879" y="261"/>
      <point x="752" y="144"/>
      <point x="553" y="144" type="curve" smooth="yes"/>
      <point x="415" y="144"/>
      <point x="283" y="213"/>
      <point x="225" y="250" type="curve"/>
      <point x="155" y="105" type="line"/>
      <point x="223" y="60"/>
      <point x="395" y="-19"/>
      <point x="574" y="-19" type="curve" smooth="yes"/>
      <point x="876" y="-19"/>
      <point x="1087" y="158"/>
      <point x="1087" y="455" type="curve" smooth="yes"/>
      <point x="1087" y="705"/>
      <point x="925" y="898"/>
      <point x="659" y="898" type="curve" smooth="yes"/>
      <point x="542" y="898"/>
      <point x="463" y="864"/>
      <point x="409" y="827" type="curve"/>
      <point x="440" y="1270" type="line"/>
      <point x="1014" y="1270" type="line"/>
      <point x="1029" y="1433" type="line"/>
    </contour>
  </outline>
</glyph>
<glyph name="six" format="1">
  <advance width="1203.500"/>
  <unicode hex="0036"/>
  <outline>
    <contour>
      <point x="695" y="1433" type="line"/>
      <point x="348" y="941" type="line"/>
      <point x="227" y="770"/>
      <point x="139" y="639"/>
      <point x="139" y="436" type="curve" smooth="yes"/>
      <point x="139" y="184"/>
      <point x="323" y="-19"/>
      <point x="626" y="-19" type="curve" smooth="yes"/>
      <point x="915" y="-19"/>
      <point x="1111" y="172"/>
      <point x="1111" y="432" type="curve" smooth="yes"/>
      <point x="1111" y="692"/>
      <point x="906" y="867"/>
      <point x="661" y="867" type="curve" smooth="yes"/>
      <point x="477" y="867"/>
      <point x="366" y="723"/>
      <point x="349" y="708" type="curve"/>
      <point x="384" y="672" type="line"/>
      <point x="384" y="672"/>
      <point x="543" y="880"/>
      <point x="599" y="962" type="curve"/>
      <point x="931" y="1433" type="line"/>
    </contour>
    <contour>
      <point x="811" y="713"/>
      <point x="909" y="597"/>
      <point x="909" y="430" type="curve" smooth="yes"/>
      <point x="909" y="269"/>
      <point x="807" y="139"/>
      <point x="619" y="139" type="curve" smooth="yes"/>
      <point x="433" y="139"/>
      <point x="339" y="265"/>
      <point x="339" y="425" type="curve" smooth="yes"/>
      <point x="339" y="630"/>
      <point x="479" y="713"/>
      <point x="624" y="713" type="curve" smooth="yes"/>
    </contour>
  </outline>
</glyph>
<glyph name="seven" format="1">
  <advance width="1203.500"/>
  <unicode hex="0037"/>
  <outline>
    <contour>
      <point x="345" y="0" type="line"/>
      <point x="557" y="0" type="line"/>
      <point x="1044" y="1291" type="line"/>
      <point x="1044" y="1433" type="line"/>
      <point x="180" y="1433" type="line"/>
      <point x="193" y="1265" type="line"/>
      <point x="821" y="1265" type="line"/>
    </contour>
  </outline>
</glyph>
<glyph name="eight" format="1">
  <advance width="1203.500"/>
  <unicode hex="0038"/>
  <outline>
    <contour>
      <point x="604" y="-19" type="curve" smooth="yes"/>
      <point x="862" y="-19"/>
      <point x="1084" y="109"/>
      <point x="1084" y="364" type="curve" smooth="yes"/>
      <point x="1084" y="545"/>
      <point x="972" y="693"/>
      <point x="809" y="755" type="curve"/>
      <point x="951" y="815"/>
      <point x="1055" y="923"/>
      <point x="1055" y="1092" type="curve" smooth="yes"/>
      <point x="1055" y="1325"/>
      <point x="858" y="1452"/>
      <point x="604" y="1452" type="curve" smooth="yes"/>
      <point x="350" y="1452"/>
      <point x="149" y="1325"/>
      <point x="149" y="1092" type="curve" smooth="yes"/>
      <point x="149" y="921"/>
      <point x="262" y="808"/>
      <point x="403" y="754" type="curve"/>
      <point x="232" y="687"/>
      <point x="120" y="555"/>
      <point x="120" y="365" type="curve" smooth="yes"/>
      <point x="120" y="110"/>
      <point x="346" y="-19"/>
    </contour>
    <contour>
      <point x="603" y="135" type="curve" smooth="yes"/>
      <point x="417" y="135"/>
      <point x="316" y="225"/>
      <point x="316" y="382" type="curve" smooth="yes"/>
      <point x="316" y="545"/>
      <point x="439" y="642"/>
      <point x="603" y="681" type="curve"/>
      <point x="768" y="642"/>
      <point x="887" y="540"/>
      <point x="887" y="383" type="curve" smooth="yes"/>
      <point x="887" y="221"/>
      <point x="794" y="135"/>
    </contour>
    <contour>
      <point x="604" y="814" type="curve"/>
      <point x="435" y="852"/>
      <point x="344" y="948"/>
      <point x="344" y="1094" type="curve" smooth="yes"/>
      <point x="344" y="1224"/>
      <point x="450" y="1305"/>
      <point x="604" y="1305" type="curve" smooth="yes"/>
      <point x="758" y="1305"/>
      <point x="860" y="1224"/>
      <point x="860" y="1094" type="curve" smooth="yes"/>
      <point x="860" y="948"/>
      <point x="773" y="852"/>
    </contour>
  </outline>
</glyph>
<glyph name="nine" format="1">
  <advance width="1203.500"/>
  <unicode hex="0039"/>
  <outline>
    <contour>
      <point x="328" y="1452"/>
      <point x="132" y="1260"/>
      <point x="132" y="999" type="curve" smooth="yes"/>
      <point x="132" y="736"/>
      <point x="337" y="563"/>
      <point x="582" y="563" type="curve" smooth="yes"/>
      <point x="755" y="563"/>
      <point x="881" y="704"/>
      <point x="896" y="722" type="curve"/>
      <point x="859" y="754" type="line"/>
      <point x="859" y="754"/>
      <point x="708" y="566"/>
      <point x="649" y="487" type="curve"/>
      <point x="276" y="0" type="line"/>
      <point x="519" y="0" type="line"/>
      <point x="519" y="0"/>
      <point x="880" y="483"/>
      <point x="892" y="499" type="curve" smooth="yes"/>
      <point x="1011" y="662"/>
      <point x="1105" y="795"/>
      <point x="1105" y="996" type="curve" smooth="yes"/>
      <point x="1105" y="1249"/>
      <point x="920" y="1452"/>
      <point x="618" y="1452" type="curve" smooth="yes"/>
    </contour>
    <contour>
      <point x="812" y="1292"/>
      <point x="906" y="1168"/>
      <point x="906" y="1007" type="curve" smooth="yes"/>
      <point x="906" y="800"/>
      <point x="765" y="718"/>
      <point x="620" y="718" type="curve" smooth="yes"/>
      <point x="433" y="718"/>
      <point x="335" y="833"/>
      <point x="335" y="1002" type="curve" smooth="yes"/>
      <point x="335" y="1164"/>
      <point x="439" y="1292"/>
      <point x="626" y="1292" type="curve" smooth="yes"/>
    </contour>
  </outline>
</glyph>
<glyph name="colon" format="1">
  <advance width="572.750"/>
  <unicode hex="003A"/>
  <outline>
    <contour>
      <point x="186" y="0" type="line"/>
      <point x="398" y="0" type="line"/>
      <point x="398" y="231" type="line"/>
      <point x="186" y="231" type="line"/>
    </contour>
    <contour>
      <point x="186" y="835" type="line"/>
      <point x="398" y="835" type="line"/>
      <point x="398" y="1062" type="line"/>
      <point x="186" y="1062" type="line"/>
    </contour>
  </outline>
</glyph>
<glyph name="semicolon" format="1">
  <advance width="565.800"/>
  <unicode hex="003B"/>
  <outline>
    <contour>
      <point x="222" y="207" type="line"/>
      <point x="169" y="-300" type="line"/>
      <point x="289" y="-300" type="line"/>
      <point x="411" y="207" type="line"/>
    </contour>
    <contour>
      <point x="195" y="1062" type="line"/>
      <point x="195" y="835" type="line"/>
      <point x="407" y="835" type="line"/>
      <point x="407" y="1062" type="line"/>
    </contour>
  </outline>
</glyph>
<glyph name="less" format="1">
  <advance width="1151.350"/>
  <unicode hex="003C"/>
  <outline>
    <contour>
      <point x="1030" y="150" type="line"/>
      <point x="1030" y="150"/>
      <point x="1031" y="321"/>
      <point x="1030" y="321" type="curve" smooth="yes"/>
      <point x="313" y="649" type="line"/>
      <point x="1032" y="1002" type="line"/>
      <point x="1032" y="1170" type="line"/>
      <point x="107" y="695" type="line"/>
      <point x="107" y="593" type="line"/>
    </contour>
  </outline>
</glyph>
<glyph name="equal" format="1">
  <advance width="674.650"/>
  <unicode hex="003D"/>
  <outline>
    <contour>
      <point x="87" y="988" type="line"/>
      <point x="87" y="837" type="line"/>
      <point x="708" y="837" type="line"/>
      <point x="708" y="988" type="line"/>
    </contour>
    <contour>
      <point x="87" y="618" type="line"/>
      <point x="87" y="467" type="line"/>
      <point x="708" y="467" type="line"/>
      <point x="708" y="618" type="line"/>
    </contour>
  </outline>
</glyph>
<glyph name="greater" format="1">
  <advance width="1157.200"/>
  <unicode hex="003E"/>
  <outline>
    <contour>
      <point x="146" y="1007" type="line"/>
      <point x="858" y="649" type="line"/>
      <point x="145" y="326" type="line"/>
      <point x="145" y="155" type="line"/>
      <point x="1070" y="592" type="line"/>
      <point x="1070" y="694" type="line"/>
      <point x="146" y="1174" type="line"/>
    </contour>
  </outline>
</glyph>
<glyph name="question" format="1">
  <advance width="943.800"/>
  <unicode hex="003F"/>
  <outline>
    <contour>
      <point x="382" y="424" type="curve"/>
      <point x="473" y="424" type="line"/>
      <point x="598" y="743"/>
      <point x="823" y="891"/>
      <point x="823" y="1147" type="curve" smooth="yes"/>
      <point x="823" y="1354"/>
      <point x="649" y="1463"/>
      <point x="472" y="1463" type="curve" smooth="yes"/>
      <point x="332" y="1463"/>
      <point x="228" y="1424"/>
      <point x="143" y="1367" type="curve"/>
      <point x="193" y="1226" type="line"/>
      <point x="242" y="1257"/>
      <point x="335" y="1309"/>
      <point x="451" y="1309" type="curve" smooth="yes"/>
      <point x="576" y="1309"/>
      <point x="651" y="1245"/>
      <point x="652" y="1124" type="curve"/>
      <point x="652" y="918"/>
      <point x="401" y="680"/>
    </contour>
    <contour>
      <point x="428" y="-11" type="curve" smooth="yes"/>
      <point x="509" y="-11"/>
      <point x="555" y="51"/>
      <point x="555" y="118" type="curve" smooth="yes"/>
      <point x="555" y="184"/>
      <point x="509" y="246"/>
      <point x="428" y="246" type="curve" smooth="yes"/>
      <point x="347" y="246"/>
      <point x="300" y="184"/>
      <point x="300" y="118" type="curve" smooth="yes"/>
      <point x="300" y="52"/>
      <point x="347" y="-11"/>
    </contour>
  </outline>
</glyph>
<glyph name="at" format="1">
  <advance width="1895.550"/>
  <unicode hex="0040"/>
  <outline>
    <contour>
      <point x="500" y="1466"/>
      <point x="140" y="1107"/>
      <point x="140" y="620" type="curve" smooth="yes"/>
      <point x="140" y="132"/>
      <point x="459" y="-166"/>
      <point x="927" y="-166" type="curve" smooth="yes"/>
      <point x="1118" y="-166"/>
      <point x="1306" y="-122"/>
      <point x="1434" y="-36" type="curve"/>
      <point x="1392" y="72" type="line"/>
      <point x="1260" y="-4"/>
      <point x="1094" y="-44"/>
      <point x="930" y="-44" type="curve" smooth="yes"/>
      <point x="527" y="-44"/>
      <point x="288" y="233"/>
      <point x="288" y="617" type="curve" smooth="yes"/>
      <point x="288" y="1010"/>
      <point x="559" y="1344"/>
      <point x="989" y="1344" type="curve" smooth="yes"/>
      <point x="1403" y="1344"/>
      <point x="1621" y="1075"/>
      <point x="1621" y="762" type="curve" smooth="yes"/>
      <point x="1621" y="501"/>
      <point x="1506" y="351"/>
      <point x="1380" y="351" type="curve" smooth="yes"/>
      <point x="1300" y="351"/>
      <point x="1251" y="415"/>
      <point x="1251" y="500" type="curve" smooth="yes"/>
      <point x="1251" y="623"/>
      <point x="1288" y="806"/>
      <point x="1316" y="1006" type="curve"/>
      <point x="1231" y="1045"/>
      <point x="1099" y="1073"/>
      <point x="1003" y="1073" type="curve" smooth="yes"/>
      <point x="722" y="1073"/>
      <point x="565" y="830"/>
      <point x="565" y="581" type="curve" smooth="yes"/>
      <point x="565" y="382"/>
      <point x="668" y="237"/>
      <point x="864" y="237" type="curve" smooth="yes"/>
      <point x="1040" y="237"/>
      <point x="1141" y="408"/>
      <point x="1178" y="545" type="curve"/>
      <point x="1133" y="545" type="line"/>
      <point x="1145" y="356"/>
      <point x="1223" y="243"/>
      <point x="1381" y="243" type="curve" smooth="yes"/>
      <point x="1551" y="243"/>
      <point x="1754" y="415"/>
      <point x="1754" y="754" type="curve" smooth="yes"/>
      <point x="1754" y="1192"/>
      <point x="1421" y="1466"/>
      <point x="994" y="1466" type="curve" smooth="yes"/>
    </contour>
    <contour>
      <point x="1163" y="983"/>
      <point x="1119" y="728"/>
      <point x="1114" y="700" type="curve" smooth="yes"/>
      <point x="1084" y="504"/>
      <point x="1031" y="347"/>
      <point x="880" y="347" type="curve" smooth="yes"/>
      <point x="770" y="347"/>
      <point x="711" y="430"/>
      <point x="711" y="579" type="curve" smooth="yes"/>
      <point x="711" y="777"/>
      <point x="826" y="968"/>
      <point x="1014" y="968" type="curve" smooth="yes"/>
      <point x="1067" y="968"/>
      <point x="1177" y="947"/>
      <point x="1216" y="933" type="curve"/>
      <point x="1165" y="1012" type="line"/>
    </contour>
  </outline>
</glyph>
<glyph name="A" format="1">
  <advance width="1397.150"/>
  <unicode hex="0041"/>
  <outline>
    <contour>
      <point x="572" y="1456" type="line"/>
      <point x="49" y="0" type="line"/>
      <point x="277" y="0" type="line"/>
      <point x="455" y="491" type="line"/>
      <point x="376" y="433" type="line"/>
      <point x="1027" y="433" type="line"/>
      <point x="945" y="487" type="line"/>
      <point x="1125" y="0" type="line"/>
      <point x="1348" y="0" type="line"/>
      <point x="826" y="1456" type="line"/>
    </contour>
    <contour>
      <point x="678" y="1324" type="line"/>
      <point x="938" y="519" type="line"/>
      <point x="983" y="583" type="line"/>
      <point x="420" y="583" type="line"/>
      <point x="462" y="518" type="line"/>
      <point x="725" y="1323" type="line"/>
    </contour>
    <contour>
      <point x="699" y="0" type="move" name="bot"/>
    </contour>
    <contour>
      <point x="1253" y="0" type="move" name="ogonek"/>
    </contour>
    <contour>
      <point x="699" y="1456" type="move" name="top"/>
    </contour>
  </outline>
</glyph>
<glyph name="B" format="1">
  <advance width="1376.700"/>
  <unicode hex="0042"/>
  <outline>
    <contour>
      <point x="550" y="-14" type="curve" smooth="yes"/>
      <point x="1105" y="-14"/>
      <point x="1268" y="123"/>
      <point x="1268" y="411" type="curve" smooth="yes"/>
      <point x="1268" y="630"/>
      <point x="1120" y="744"/>
      <point x="910" y="785" type="curve"/>
      <point x="910" y="732" type="line"/>
      <point x="1132" y="796"/>
      <point x="1213" y="934"/>
      <point x="1213" y="1101" type="curve" smooth="yes"/>
      <point x="1213" y="1357"/>
      <point x="1067" y="1469"/>
      <point x="554" y="1469" type="curve" smooth="yes"/>
      <point x="451" y="1469"/>
      <point x="332" y="1465"/>
      <point x="197" y="1456" type="curve"/>
      <point x="197" y="0" type="line"/>
      <point x="330" y="-9"/>
      <point x="447" y="-14"/>
    </contour>
    <contour>
      <point x="418" y="110" type="line"/>
      <point x="418" y="737" type="line"/>
      <point x="363" y="678" type="line"/>
      <point x="678" y="678" type="line" smooth="yes"/>
      <point x="952" y="678"/>
      <point x="1047" y="594"/>
      <point x="1047" y="419" type="curve" smooth="yes"/>
      <point x="1047" y="233"/>
      <point x="970" y="156"/>
      <point x="631" y="156" type="curve" smooth="yes"/>
      <point x="555" y="156"/>
      <point x="466" y="160"/>
      <point x="363" y="167" type="curve"/>
    </contour>
    <contour>
      <point x="418" y="780" type="line"/>
      <point x="418" y="1348" type="line"/>
      <point x="363" y="1292" type="line"/>
      <point x="466" y="1301"/>
      <point x="554" y="1305"/>
      <point x="628" y="1305" type="curve" smooth="yes"/>
      <point x="912" y="1305"/>
      <point x="1000" y="1239"/>
      <point x="1000" y="1073" type="curve" smooth="yes"/>
      <point x="1000" y="900"/>
      <point x="892" y="829"/>
      <point x="713" y="829" type="curve" smooth="yes"/>
      <point x="362" y="829" type="line"/>
    </contour>
    <contour>
      <point x="684" y="1456" type="move" name="top"/>
    </contour>
  </outline>
</glyph>
<glyph name="C" format="1">
  <advance width="1310.100"/>
  <unicode hex="0043"/>
  <outline>
    <contour>
      <point x="392" y="1475"/>
      <point x="133" y="1187"/>
      <point x="133" y="728" type="curve" smooth="yes"/>
      <point x="133" y="269"/>
      <point x="392" y="-19"/>
      <point x="804" y="-20" type="curve" smooth="yes"/>
      <point x="1099" y="-20"/>
      <point x="1304" y="140"/>
      <point x="1335" y="396" type="curve"/>
      <point x="1198" y="451" type="line"/>
      <point x="1168" y="451" type="line"/>
      <point x="1137" y="268"/>
      <point x="998" y="155"/>
      <point x="804" y="155" type="curve" smooth="yes"/>
      <point x="528" y="155"/>
      <point x="354" y="376"/>
      <point x="354" y="728" type="curve" smooth="yes"/>
      <point x="354" y="1080"/>
      <point x="528" y="1301"/>
      <point x="804" y="1301" type="curve" smooth="yes"/>
      <point x="998" y="1301"/>
      <point x="1137" y="1188"/>
      <point x="1168" y="1006" type="curve"/>
      <point x="1200" y="1006" type="line"/>
      <point x="1335" y="1060" type="line"/>
      <point x="1304" y="1316"/>
      <point x="1099" y="1476"/>
      <point x="804" y="1476" type="curve" smooth="yes"/>
    </contour>
    <contour>
      <point x="785" y="0" type="move" name="bot"/>
    </contour>
    <contour>
      <point x="766" y="1456" type="move" name="top"/>
    </contour>
  </outline>
</glyph>
<glyph name="D" format="1">
  <advance width="1544.100"/>
  <unicode hex="0044"/>
  <outline>
    <contour>
      <point x="197" y="0" type="line"/>
      <point x="1115" y="-80"/>
      <point x="1413" y="178"/>
      <point x="1413" y="732" type="curve" smooth="yes"/>
      <point x="1413" y="1295"/>
      <point x="1126" y="1536"/>
      <point x="197" y="1456" type="curve"/>
    </contour>
    <contour>
      <point x="356" y="1292" type="line"/>
      <point x="1007" y="1332"/>
      <point x="1192" y="1181"/>
      <point x="1192" y="727" type="curve" smooth="yes"/>
      <point x="1192" y="307"/>
      <point x="997" y="114"/>
      <point x="357" y="167" type="curve"/>
      <point x="418" y="101" type="line"/>
      <point x="418" y="1354" type="line"/>
    </contour>
    <contour>
      <point x="772" y="0" type="move" name="bot"/>
    </contour>
    <contour>
      <point x="772" y="1433" type="move" name="top"/>
    </contour>
    <contour>
      <point x="309" y="771" type="move" name="mid"/>
    </contour>
  </outline>
</glyph>
<glyph name="E" format="1">
  <advance width="1201.850"/>
  <unicode hex="0045"/>
  <outline>
    <contour>
      <point x="197" y="1456" type="line"/>
      <point x="197" y="0" type="line"/>
      <point x="1089" y="0" type="line"/>
      <point x="1103" y="167" type="line"/>
      <point x="355" y="167" type="line"/>
      <point x="418" y="105" type="line"/>
      <point x="418" y="736" type="line"/>
      <point x="354" y="673" type="line"/>
      <point x="1039" y="673" type="line"/>
      <point x="1039" y="837" type="line"/>
      <point x="355" y="837" type="line"/>
      <point x="418" y="776" type="line"/>
      <point x="418" y="1353" type="line"/>
      <point x="355" y="1292" type="line"/>
      <point x="1089" y="1292" type="line"/>
      <point x="1097" y="1456" type="line"/>
    </contour>
    <contour>
      <point x="601" y="0" type="move" name="bot"/>
    </contour>
    <contour>
      <point x="729" y="0" type="move" name="ogonek"/>
    </contour>
    <contour>
      <point x="671" y="1456" type="move" name="top"/>
    </contour>
  </outline>
</glyph>
<glyph name="F" format="1">
  <advance width="1134"/>
  <unicode hex="0046"/>
  <outline>
    <contour>
      <point x="197" y="1456" type="line"/>
      <point x="197" y="0" type="line"/>
      <point x="420" y="0" type="line"/>
      <point x="420" y="731" type="line"/>
      <point x="341" y="661" type="line"/>
      <point x="1014" y="661" type="line"/>
      <point x="1014" y="822" type="line"/>
      <point x="336" y="822" type="line"/>
      <point x="420" y="760" type="line"/>
      <point x="420" y="1361" type="line"/>
      <point x="333" y="1287" type="line"/>
      <point x="1066" y="1287" type="line"/>
      <point x="1077" y="1456" type="line"/>
    </contour>
    <contour>
      <point x="567" y="0" type="move" name="bot"/>
    </contour>
    <contour>
      <point x="567" y="1456" type="move" name="top"/>
    </contour>
  </outline>
</glyph>
<glyph name="G" format="1">
  <advance width="1468.150"/>
  <unicode hex="0047"/>
  <outline>
    <contour>
      <point x="425" y="1476"/>
      <point x="132" y="1181"/>
      <point x="132" y="716" type="curve" smooth="yes"/>
      <point x="131" y="286"/>
      <point x="378" y="-19"/>
      <point x="817" y="-19" type="curve" smooth="yes"/>
      <point x="1012" y="-19"/>
      <point x="1167" y="15"/>
      <point x="1317" y="76" type="curve"/>
      <point x="1317" y="745" type="line"/>
      <point x="808" y="745" type="line"/>
      <point x="803" y="577" type="line"/>
      <point x="1182" y="577" type="line"/>
      <point x="1120" y="640" type="line"/>
      <point x="1120" y="126" type="line"/>
      <point x="1183" y="225" type="line"/>
      <point x="1122" y="197"/>
      <point x="1022" y="158"/>
      <point x="841" y="158" type="curve" smooth="yes"/>
      <point x="497" y="158"/>
      <point x="353" y="380"/>
      <point x="353" y="718" type="curve" smooth="yes"/>
      <point x="353" y="1074"/>
      <point x="543" y="1302"/>
      <point x="854" y="1302" type="curve" smooth="yes"/>
      <point x="1018" y="1302"/>
      <point x="1121" y="1255"/>
      <point x="1211" y="1209" type="curve"/>
      <point x="1231" y="1209" type="line"/>
      <point x="1282" y="1364" type="line"/>
      <point x="1153" y="1443"/>
      <point x="1017" y="1476"/>
      <point x="847" y="1476" type="curve" smooth="yes"/>
    </contour>
    <contour>
      <point x="814" y="0" type="move" name="bot"/>
    </contour>
    <contour>
      <point x="845" y="1456" type="move" name="top"/>
    </contour>
  </outline>
</glyph>
<glyph name="H" format="1">
  <advance width="1535.200"/>
  <unicode hex="0048"/>
  <outline>
    <contour>
      <point x="1118" y="1456" type="line"/>
      <point x="1118" y="780" type="line"/>
      <point x="1187" y="841" type="line"/>
      <point x="346" y="841" type="line"/>
      <point x="417" y="780" type="line"/>
      <point x="417" y="1456" type="line"/>
      <point x="196" y="1456" type="line"/>
      <point x="196" y="0" type="line"/>
      <point x="417" y="0" type="line"/>
      <point x="417" y="739" type="line"/>
      <point x="347" y="678" type="line"/>
      <point x="1192" y="678" type="line"/>
      <point x="1118" y="739" type="line"/>
      <point x="1118" y="0" type="line"/>
      <point x="1339" y="0" type="line"/>
      <point x="1339" y="1456" type="line"/>
    </contour>
    <contour>
      <point x="768" y="0" type="move" name="bot"/>
    </contour>
    <contour>
      <point x="768" y="1456" type="move" name="top"/>
    </contour>
  </outline>
</glyph>
<glyph name="I" format="1">
  <advance width="816.500"/>
  <unicode hex="0049"/>
  <outline>
    <contour>
      <point x="117" y="1456" type="line"/>
      <point x="117" y="1323" type="line"/>
      <point x="360" y="1323" type="line"/>
      <point x="299" y="1375" type="line"/>
      <point x="299" y="76" type="line"/>
      <point x="362" y="133" type="line"/>
      <point x="117" y="133" type="line"/>
      <point x="117" y="0" type="line"/>
      <point x="699" y="0" type="line"/>
      <point x="699" y="133" type="line"/>
      <point x="452" y="133" type="line"/>
      <point x="520" y="76" type="line"/>
      <point x="520" y="1376" type="line"/>
      <point x="453" y="1323" type="line"/>
      <point x="699" y="1323" type="line"/>
      <point x="699" y="1456" type="line"/>
    </contour>
    <contour>
      <point x="408" y="0" type="move" name="bot"/>
    </contour>
    <contour>
      <point x="450" y="0" type="move" name="ogonek"/>
    </contour>
    <contour>
      <point x="408" y="1456" type="move" name="top"/>
    </contour>
  </outline>
</glyph>
<glyph name="J" format="1">
  <advance width="812.350"/>
  <unicode hex="004A"/>
  <outline>
    <contour>
      <point x="394" y="1456" type="line"/>
      <point x="394" y="104" type="line" smooth="yes"/>
      <point x="394" y="-58"/>
      <point x="385" y="-145"/>
      <point x="267" y="-214" type="curve" smooth="yes"/>
      <point x="160" y="-276" type="line"/>
      <point x="227" y="-432" type="line"/>
      <point x="357" y="-370" type="line" smooth="yes"/>
      <point x="553" y="-276"/>
      <point x="615" y="-188"/>
      <point x="615" y="123" type="curve" smooth="yes"/>
      <point x="615" y="1456" type="line"/>
    </contour>
    <contour>
      <point x="406" y="0" type="move" name="bot"/>
    </contour>
    <contour>
      <point x="504" y="1456" type="move" name="top"/>
    </contour>
  </outline>
</glyph>
<glyph name="K" format="1">
  <advance width="1357.650"/>
  <unicode hex="004B"/>
  <outline>
    <contour>
      <point x="1274" y="1456" type="line"/>
      <point x="1033" y="1456" type="line"/>
      <point x="362" y="715" type="line"/>
      <point x="418" y="705" type="line"/>
      <point x="418" y="1456" type="line"/>
      <point x="197" y="1456" type="line"/>
      <point x="197" y="0" type="line"/>
      <point x="418" y="0" type="line"/>
      <point x="418" y="654" type="line"/>
      <point x="368" y="535" type="line"/>
      <point x="600" y="743" type="line"/>
      <point x="509" y="750" type="line"/>
      <point x="1064" y="0" type="line"/>
      <point x="1312" y="0" type="line"/>
      <point x="1312" y="16" type="line"/>
      <point x="669" y="865" type="line"/>
      <point x="669" y="752" type="line"/>
      <point x="1274" y="1439" type="line"/>
    </contour>
    <contour>
      <point x="679" y="0" type="move" name="bot"/>
    </contour>
    <contour>
      <point x="719" y="1456" type="move" name="top"/>
    </contour>
  </outline>
</glyph>
<glyph name="L" format="1">
  <advance width="1136.250"/>
  <unicode hex="004C"/>
  <outline>
    <contour>
      <point x="197" y="1456" type="line"/>
      <point x="197" y="0" type="line"/>
      <point x="1071" y="0" type="line"/>
      <point x="1078" y="167" type="line"/>
      <point x="338" y="167" type="line"/>
      <point x="418" y="86" type="line"/>
      <point x="418" y="1456" type="line"/>
    </contour>
    <contour>
      <point x="455" y="1082" type="move" name="caron.alt"/>
    </contour>
    <contour>
      <point x="543" y="1456" type="move" name="top"/>
    </contour>
    <contour>
      <point x="368" y="809" type="move" name="mid"/>
    </contour>
    <contour>
      <point x="568" y="0" type="move" name="bot"/>
    </contour>
  </outline>
</glyph>
<glyph name="M" format="1">
  <advance width="1858.950"/>
  <unicode hex="004D"/>
  <outline>
    <contour>
      <point x="184" y="0" type="line"/>
      <point x="391" y="0" type="line"/>
      <point x="391" y="533" type="line"/>
      <point x="399" y="1234" type="line"/>
      <point x="360" y="1234" type="line"/>
      <point x="839" y="179" type="line"/>
      <point x="1014" y="179" type="line"/>
      <point x="1504" y="1234" type="line"/>
      <point x="1459" y="1234" type="line"/>
      <point x="1467" y="534" type="line"/>
      <point x="1467" y="0" type="line"/>
      <point x="1674" y="0" type="line"/>
      <point x="1674" y="535" type="line"/>
      <point x="1647" y="1456" type="line"/>
      <point x="1408" y="1456" type="line"/>
      <point x="889" y="328" type="line"/>
      <point x="971" y="328" type="line"/>
      <point x="455" y="1456" type="line"/>
      <point x="209" y="1456" type="line"/>
      <point x="184" y="534" type="line"/>
    </contour>
    <contour>
      <point x="929" y="0" type="move" name="bot"/>
    </contour>
    <contour>
      <point x="929" y="1456" type="move" name="top"/>
    </contour>
  </outline>
</glyph>
<glyph name="N" format="1">
  <advance width="1585.800"/>
  <unicode hex="004E"/>
  <outline>
    <contour>
      <point x="1177" y="1456" type="line"/>
      <point x="1177" y="731" type="line"/>
      <point x="1192" y="195" type="line"/>
      <point x="1239" y="198" type="line"/>
      <point x="424" y="1456" type="line"/>
      <point x="197" y="1456" type="line"/>
      <point x="197" y="0" type="line"/>
      <point x="409" y="0" type="line"/>
      <point x="409" y="665" type="line"/>
      <point x="389" y="1256" type="line"/>
      <point x="340" y="1246" type="line"/>
      <point x="1153" y="0" type="line"/>
      <point x="1388" y="0" type="line"/>
      <point x="1388" y="1456" type="line"/>
    </contour>
    <contour>
      <point x="793" y="0" type="move" name="bot"/>
    </contour>
    <contour>
      <point x="830" y="1456" type="move" name="top"/>
    </contour>
  </outline>
</glyph>
<glyph name="O" format="1">
  <advance width="1652.950"/>
  <unicode hex="004F"/>
  <outline>
    <contour>
      <point x="401" y="1476"/>
      <point x="133" y="1189"/>
      <point x="133" y="720" type="curve" smooth="yes"/>
      <point x="133" y="274"/>
      <point x="394" y="-20"/>
      <point x="829" y="-20" type="curve" smooth="yes"/>
      <point x="1261" y="-20"/>
      <point x="1521" y="278"/>
      <point x="1521" y="718" type="curve" smooth="yes"/>
      <point x="1521" y="1187"/>
      <point x="1252" y="1476"/>
      <point x="830" y="1476" type="curve" smooth="yes"/>
    </contour>
    <contour>
      <point x="1133" y="1300"/>
      <point x="1299" y="1069"/>
      <point x="1299" y="719" type="curve" smooth="yes"/>
      <point x="1299" y="393"/>
      <point x="1138" y="155"/>
      <point x="828" y="155" type="curve" smooth="yes"/>
      <point x="518" y="155"/>
      <point x="354" y="393"/>
      <point x="354" y="719" type="curve" smooth="yes"/>
      <point x="354" y="1071"/>
      <point x="525" y="1300"/>
      <point x="829" y="1300" type="curve" smooth="yes"/>
    </contour>
    <contour>
      <point x="826" y="0" type="move" name="bot"/>
    </contour>
    <contour>
      <point x="961" y="0" type="move" name="ogonek"/>
    </contour>
    <contour>
      <point x="828" y="1456" type="move" name="top"/>
    </contour>
  </outline>
</glyph>
<glyph name="P" format="1">
  <advance width="1292.950"/>
  <unicode hex="0050"/>
  <outline>
    <contour>
      <point x="197" y="1456" type="curve"/>
      <point x="197" y="0" type="line"/>
      <point x="418" y="0" type="line"/>
      <point x="418" y="749" type="line"/>
      <point x="354" y="685" type="line"/>
      <point x="1034" y="634"/>
      <point x="1209" y="777"/>
      <point x="1209" y="1092" type="curve" smooth="yes"/>
      <point x="1209" y="1427"/>
      <point x="951" y="1507"/>
    </contour>
    <contour>
      <point x="356" y="1292" type="line"/>
      <point x="825" y="1334"/>
      <point x="989" y="1286"/>
      <point x="989" y="1087" type="curve" smooth="yes"/>
      <point x="989" y="871"/>
      <point x="909" y="828"/>
      <point x="356" y="853" type="curve"/>
      <point x="418" y="796" type="line"/>
      <point x="418" y="1352" type="line"/>
    </contour>
    <contour>
      <point x="646" y="0" type="move" name="bot"/>
    </contour>
    <contour>
      <point x="661" y="1456" type="move" name="top"/>
    </contour>
  </outline>
</glyph>
<glyph name="Q" format="1">
  <advance width="1651.850"/>
  <unicode hex="0051"/>
  <outline>
    <contour>
      <point x="920" y="-5" type="line"/>
      <point x="1006" y="-168"/>
      <point x="1154" y="-379"/>
      <point x="1240" y="-450" type="curve"/>
      <point x="1368" y="-335" type="line"/>
      <point x="1268" y="-234"/>
      <point x="1151" y="-60"/>
      <point x="1102" y="34" type="curve"/>
    </contour>
    <component base="O"/>
  </outline>
</glyph>
<glyph name="R" format="1">
  <advance width="1417.350"/>
  <unicode hex="0052"/>
  <outline>
    <contour>
      <point x="197" y="0" type="line"/>
      <point x="418" y="0" type="line"/>
      <point x="418" y="723" type="line"/>
      <point x="355" y="676" type="line"/>
      <point x="884" y="676" type="line"/>
      <point x="781" y="732" type="line"/>
      <point x="1082" y="0" type="line"/>
      <point x="1305" y="0" type="line"/>
      <point x="1305" y="18" type="line"/>
      <point x="975" y="787" type="line"/>
      <point x="961" y="692" type="line"/>
      <point x="1136" y="738"/>
      <point x="1256" y="836"/>
      <point x="1256" y="1071" type="curve" smooth="yes"/>
      <point x="1256" y="1426"/>
      <point x="1032" y="1493"/>
      <point x="197" y="1456" type="curve"/>
    </contour>
    <contour>
      <point x="419" y="770" type="line"/>
      <point x="355" y="829" type="line"/>
      <point x="758" y="829" type="line" smooth="yes"/>
      <point x="988" y="829"/>
      <point x="1038" y="898"/>
      <point x="1038" y="1068" type="curve" smooth="yes"/>
      <point x="1038" y="1279"/>
      <point x="952" y="1318"/>
      <point x="357" y="1292" type="curve"/>
      <point x="419" y="1351" type="line"/>
    </contour>
    <contour>
      <point x="709" y="0" type="move" name="bot"/>
    </contour>
    <contour>
      <point x="709" y="1456" type="move" name="top"/>
    </contour>
  </outline>
</glyph>
<glyph name="S" format="1">
  <advance width="1218.808"/>
  <unicode hex="0053"/>
  <outline>
    <contour>
      <point x="213" y="267" type="line"/>
      <point x="145" y="110" type="line"/>
      <point x="235" y="53"/>
      <point x="379" y="-19"/>
      <point x="605" y="-19" type="curve" smooth="yes"/>
      <point x="888" y="-19"/>
      <point x="1096" y="109"/>
      <point x="1104" y="391" type="curve" smooth="yes"/>
      <point x="1111" y="638"/>
      <point x="972" y="733"/>
      <point x="750" y="813" type="curve" smooth="yes"/>
      <point x="522" y="896" type="line" smooth="yes"/>
      <point x="410" y="939"/>
      <point x="367" y="989"/>
      <point x="367" y="1093" type="curve" smooth="yes"/>
      <point x="367" y="1250"/>
      <point x="502" y="1300"/>
      <point x="654" y="1300" type="curve" smooth="yes"/>
      <point x="792" y="1300"/>
      <point x="912" y="1243"/>
      <point x="978" y="1207" type="curve"/>
      <point x="993" y="1207" type="line"/>
      <point x="1062" y="1358" type="line"/>
      <point x="963" y="1422"/>
      <point x="819" y="1476"/>
      <point x="654" y="1476" type="curve" smooth="yes"/>
      <point x="399" y="1476"/>
      <point x="162" y="1366"/>
      <point x="162" y="1084" type="curve" smooth="yes"/>
      <point x="162" y="885"/>
      <point x="273" y="781"/>
      <point x="451" y="717" type="curve" smooth="yes"/>
      <point x="690" y="632" type="line" smooth="yes"/>
      <point x="844" y="575"/>
      <point x="902" y="519"/>
      <point x="899" y="392" type="curve" smooth="yes"/>
      <point x="895" y="227"/>
      <point x="796" y="156"/>
      <point x="613" y="156" type="curve" smooth="yes"/>
      <point x="452" y="156"/>
      <point x="312" y="209"/>
      <point x="223" y="267" type="curve"/>
    </contour>
    <contour>
      <point x="609" y="0" type="move" name="bot"/>
    </contour>
    <contour>
      <point x="639" y="1456" type="move" name="top"/>
    </contour>
  </outline>
</glyph>
<glyph name="T" format="1">
  <advance width="1175.050"/>
  <unicode hex="0054"/>
  <outline>
    <contour>
      <point x="54" y="1456" type="line"/>
      <point x="54" y="1283" type="line"/>
      <point x="537" y="1283" type="line"/>
      <point x="476" y="1357" type="line"/>
      <point x="476" y="0" type="line"/>
      <point x="697" y="0" type="line"/>
      <point x="697" y="1357" type="line"/>
      <point x="635" y="1283" type="line"/>
      <point x="1121" y="1283" type="line"/>
      <point x="1121" y="1456" type="line"/>
    </contour>
    <contour>
      <point x="588" y="0" type="move" name="bot"/>
    </contour>
    <contour>
      <point x="588" y="1456" type="move" name="top"/>
    </contour>
    <contour>
      <point x="585" y="660" type="move" name="mid"/>
    </contour>
  </outline>
</glyph>
<glyph name="U" format="1">
  <advance width="1500.650"/>
  <unicode hex="0055"/>
  <outline>
    <contour>
      <point x="1116" y="1456" type="line"/>
      <point x="1116" y="530" type="line" smooth="yes"/>
      <point x="1116" y="285"/>
      <point x="989" y="157"/>
      <point x="751" y="157" type="curve" smooth="yes"/>
      <point x="510" y="157"/>
      <point x="386" y="285"/>
      <point x="386" y="530" type="curve" smooth="yes"/>
      <point x="386" y="1456" type="line"/>
      <point x="164" y="1456" type="line"/>
      <point x="164" y="521" type="line" smooth="yes"/>
      <point x="164" y="194"/>
      <point x="371" y="-20"/>
      <point x="751" y="-20" type="curve" smooth="yes"/>
      <point x="1128" y="-20"/>
      <point x="1337" y="199"/>
      <point x="1337" y="519" type="curve" smooth="yes"/>
      <point x="1337" y="1456" type="line"/>
    </contour>
    <contour>
      <point x="750" y="0" type="move" name="bot"/>
    </contour>
    <contour>
      <point x="841" y="0" type="move" name="ogonek"/>
    </contour>
    <contour>
      <point x="765" y="1456" type="move" name="top"/>
    </contour>
  </outline>
</glyph>
<glyph name="V" format="1">
  <advance width="1394.650"/>
  <unicode hex="0056"/>
  <outline>
    <contour>
      <point x="1094" y="1456" type="line"/>
      <point x="800" y="558" type="line"/>
      <point x="668" y="154" type="line"/>
      <point x="732" y="154" type="line"/>
      <point x="598" y="555" type="line"/>
      <point x="303" y="1456" type="line"/>
      <point x="70" y="1456" type="line"/>
      <point x="586" y="0" type="line"/>
      <point x="808" y="0" type="line"/>
      <point x="1325" y="1456" type="line"/>
    </contour>
  </outline>
</glyph>
<glyph name="W" format="1">
  <advance width="2048.100"/>
  <unicode hex="0057"/>
  <outline>
    <contour>
      <point x="1781" y="1456" type="line"/>
      <point x="1442" y="214" type="line"/>
      <point x="1481" y="214" type="line"/>
      <point x="1128" y="1433" type="line"/>
      <point x="921" y="1433" type="line"/>
      <point x="561" y="213" type="line"/>
      <point x="602" y="213" type="line"/>
      <point x="266" y="1456" type="line"/>
      <point x="52" y="1456" type="line"/>
      <point x="472" y="0" type="line"/>
      <point x="680" y="0" type="line"/>
      <point x="1051" y="1236" type="line"/>
      <point x="1002" y="1236" type="line"/>
      <point x="1358" y="0" type="line"/>
      <point x="1570" y="0" type="line"/>
      <point x="1996" y="1456" type="line"/>
    </contour>
    <contour>
      <point x="1024" y="0" type="move" name="bot"/>
    </contour>
    <contour>
      <point x="1025" y="1456" type="move" name="top"/>
    </contour>
  </outline>
</glyph>
<glyph name="X" format="1">
  <advance width="1390.500"/>
  <unicode hex="0058"/>
  <outline>
    <contour>
      <point x="1058" y="1456" type="line"/>
      <point x="703" y="880" type="line"/>
      <point x="592" y="761" type="line"/>
      <point x="106" y="0" type="line"/>
      <point x="328" y="0" type="line"/>
      <point x="710" y="596" type="line"/>
      <point x="810" y="710" type="line"/>
      <point x="1280" y="1456" type="line"/>
    </contour>
    <contour>
      <point x="117" y="1456" type="line"/>
      <point x="1064" y="0" type="line"/>
      <point x="1293" y="0" type="line"/>
      <point x="343" y="1456" type="line"/>
    </contour>
  </outline>
</glyph>
<glyph name="Y" format="1">
  <advance width="1279.600"/>
  <unicode hex="0059"/>
  <outline>
    <contour>
      <point x="1000" y="1456" type="line"/>
      <point x="612" y="710" type="line"/>
      <point x="682" y="710" type="line"/>
      <point x="282" y="1456" type="line"/>
      <point x="56" y="1456" type="line"/>
      <point x="595" y="491" type="line"/>
      <point x="541" y="679" type="line"/>
      <point x="541" y="0" type="line"/>
      <point x="755" y="0" type="line"/>
      <point x="755" y="682" type="line"/>
      <point x="707" y="503" type="line"/>
      <point x="1224" y="1456" type="line"/>
    </contour>
    <contour>
      <point x="640" y="0" type="move" name="bot"/>
    </contour>
    <contour>
      <point x="640" y="1456" type="move" name="top"/>
    </contour>
  </outline>
</glyph>
<glyph name="Z" format="1">
  <advance width="1234.550"/>
  <unicode hex="005A"/>
  <outline>
    <contour>
      <point x="173" y="1456" type="line"/>
      <point x="173" y="1292" type="line"/>
      <point x="932" y="1292" type="line"/>
      <point x="894" y="1357" type="line"/>
      <point x="149" y="145" type="line"/>
      <point x="149" y="0" type="line"/>
      <point x="1111" y="0" type="line"/>
      <point x="1116" y="167" type="line"/>
      <point x="344" y="167" type="line"/>
      <point x="374" y="98" type="line"/>
      <point x="1108" y="1308" type="line"/>
      <point x="1103" y="1456" type="line"/>
    </contour>
    <contour>
      <point x="617" y="0" type="move" name="bot"/>
    </contour>
    <contour>
      <point x="637" y="1456" type="move" name="top"/>
    </contour>
  </outline>
</glyph>
<glyph name="bracketleft" format="1">
  <advance width="703.800"/>
  <unicode hex="005B"/>
  <outline>
    <contour>
      <point x="197" y="-200" type="line"/>
      <point x="639" y="-200" type="line"/>
      <point x="639" y="-57" type="line"/>
      <point x="383" y="-57" type="line"/>
      <point x="383" y="1337" type="line"/>
      <point x="639" y="1337" type="line"/>
      <point x="639" y="1480" type="line"/>
      <point x="197" y="1480" type="line"/>
    </contour>
  </outline>
</glyph>
<glyph name="backslash" format="1">
  <advance width="895.200"/>
  <unicode hex="005C"/>
  <outline>
    <contour>
      <point x="633" y="-27" type="line"/>
      <point x="801" y="-27" type="line"/>
      <point x="288" y="1424" type="line"/>
      <point x="118" y="1424" type="line"/>
    </contour>
  </outline>
</glyph>
<glyph name="bracketright" format="1">
  <advance width="705.150"/>
  <unicode hex="005D"/>
  <outline>
    <contour>
      <point x="89" y="-200" type="line"/>
      <point x="530" y="-200" type="line"/>
      <point x="530" y="1480" type="line"/>
      <point x="89" y="1480" type="line"/>
      <point x="89" y="1336" type="line"/>
      <point x="345" y="1336" type="line"/>
      <point x="345" y="-58" type="line"/>
      <point x="89" y="-58" type="line"/>
    </contour>
  </outline>
</glyph>
<glyph name="asciicircum" format="1">
  <advance width="1192.150"/>
  <unicode hex="005E"/>
  <outline>
    <contour>
      <point x="545" y="1453" type="line"/>
      <point x="114" y="557" type="line"/>
      <point x="273" y="557" type="line"/>
      <point x="600" y="1250" type="line"/>
      <point x="947" y="557" type="line"/>
      <point x="1108" y="557" type="line"/>
      <point x="651" y="1453" type="line"/>
    </contour>
  </outline>
</glyph>
<glyph name="underscore" format="1">
  <advance width="1041.250"/>
  <unicode hex="005F"/>
  <outline>
    <contour>
      <point x="72" y="-233" type="line"/>
      <point x="991" y="-233" type="line"/>
      <point x="991" y="-91" type="line"/>
      <point x="72" y="-91" type="line"/>
    </contour>
  </outline>
</glyph>
<glyph name="grave" format="1">
  <advance width="577.500"/>
  <unicode hex="0060"/>
  <outline>
    <contour>
      <point x="376" y="1184" type="line"/>
      <point x="497" y="1184" type="line"/>
      <point x="318" y="1560" type="line"/>
      <point x="85" y="1560" type="line"/>
    </contour>
    <contour>
      <point x="435" y="1082" type="move" name="_top"/>
    </contour>
  </outline>
</glyph>
<glyph name="a" format="1">
  <advance width="1132.450"/>
  <unicode hex="0061"/>
  <outline>
    <contour>
      <point x="166" y="1015" type="curve"/>
      <point x="213" y="877" type="line"/>
      <point x="316" y="922"/>
      <point x="445" y="952"/>
      <point x="547" y="952" type="curve" smooth="yes"/>
      <point x="693" y="952"/>
      <point x="774" y="884"/>
      <point x="774" y="741" type="curve" smooth="yes"/>
      <point x="774" y="610" type="line"/>
      <point x="811" y="648" type="line"/>
      <point x="578" y="637" type="line" smooth="yes"/>
      <point x="268" y="625"/>
      <point x="114" y="520"/>
      <point x="114" y="290" type="curve" smooth="yes"/>
      <point x="114" y="86"/>
      <point x="258" y="-20"/>
      <point x="447" y="-20" type="curve" smooth="yes"/>
      <point x="587" y="-20"/>
      <point x="739" y="40"/>
      <point x="834" y="181" type="curve"/>
      <point x="789" y="202" type="line"/>
      <point x="826" y="0" type="line"/>
      <point x="975" y="0" type="line"/>
      <point x="975" y="715" type="line" smooth="yes"/>
      <point x="975" y="999"/>
      <point x="800" y="1102"/>
      <point x="558" y="1102" type="curve" smooth="yes"/>
      <point x="434" y="1102"/>
      <point x="284" y="1069"/>
    </contour>
    <contour>
      <point x="774" y="237" type="line"/>
      <point x="811" y="334" type="line"/>
      <point x="753" y="218"/>
      <point x="614" y="130"/>
      <point x="474" y="130" type="curve" smooth="yes"/>
      <point x="383" y="130"/>
      <point x="305" y="182"/>
      <point x="305" y="291" type="curve" smooth="yes"/>
      <point x="305" y="433"/>
      <point x="383" y="498"/>
      <point x="638" y="508" type="curve" smooth="yes"/>
      <point x="804" y="514" type="line"/>
      <point x="774" y="550" type="line"/>
    </contour>
    <contour>
      <point x="566" y="0" type="move" name="bot"/>
    </contour>
    <contour>
      <point x="566" y="1082" type="move" name="top"/>
    </contour>
    <contour>
      <point x="924" y="0" type="move" name="ogonek"/>
    </contour>
  </outline>
</glyph>
<glyph name="b" format="1">
  <advance width="1244.150"/>
  <unicode hex="0062"/>
  <outline>
    <contour>
      <point x="165" y="1540" type="line"/>
      <point x="165" y="0" type="line"/>
      <point x="335" y="0" type="line"/>
      <point x="360" y="240" type="line"/>
      <point x="314" y="229" type="line"/>
      <point x="366" y="115"/>
      <point x="499" y="-20"/>
      <point x="687" y="-20" type="curve" smooth="yes"/>
      <point x="972" y="-20"/>
      <point x="1135" y="203"/>
      <point x="1136" y="534" type="curve" smooth="yes"/>
      <point x="1136" y="876"/>
      <point x="983" y="1102"/>
      <point x="693" y="1102" type="curve" smooth="yes"/>
      <point x="509" y="1102"/>
      <point x="398" y="994"/>
      <point x="334" y="875" type="curve"/>
      <point x="366" y="864" type="line"/>
      <point x="369" y="1115" type="line"/>
      <point x="369" y="1560" type="line"/>
    </contour>
    <contour>
      <point x="845" y="948"/>
      <point x="933" y="801"/>
      <point x="933" y="533" type="curve" smooth="yes"/>
      <point x="933" y="278"/>
      <point x="836" y="136"/>
      <point x="653" y="136" type="curve" smooth="yes"/>
      <point x="520" y="136"/>
      <point x="422" y="225"/>
      <point x="365" y="336" type="curve"/>
      <point x="365" y="548" type="line"/>
      <point x="366" y="811"/>
      <point x="467" y="948"/>
      <point x="660" y="948" type="curve" smooth="yes"/>
    </contour>
    <contour>
      <point x="692" y="1082" type="move" name="top"/>
    </contour>
  </outline>
</glyph>
<glyph name="c" format="1">
  <advance width="1002.600"/>
  <unicode hex="0063"/>
  <outline>
    <contour>
      <point x="874" y="297" type="line"/>
      <point x="823" y="198"/>
      <point x="731" y="137"/>
      <point x="631" y="137" type="curve" smooth="yes"/>
      <point x="434" y="137"/>
      <point x="311" y="293"/>
      <point x="311" y="541" type="curve" smooth="yes"/>
      <point x="311" y="789"/>
      <point x="434" y="945"/>
      <point x="631" y="945" type="curve" smooth="yes"/>
      <point x="732" y="945"/>
      <point x="825" y="883"/>
      <point x="875" y="783" type="curve"/>
      <point x="890" y="783" type="line"/>
      <point x="1012" y="853" type="line"/>
      <point x="962" y="1006"/>
      <point x="806" y="1102"/>
      <point x="608" y="1102" type="curve" smooth="yes"/>
      <point x="301" y="1102"/>
      <point x="109" y="886"/>
      <point x="109" y="541" type="curve" smooth="yes"/>
      <point x="109" y="196"/>
      <point x="301" y="-20"/>
      <point x="608" y="-20" type="curve" smooth="yes"/>
      <point x="806" y="-20"/>
      <point x="962" y="76"/>
      <point x="1012" y="229" type="curve"/>
      <point x="894" y="297" type="line"/>
    </contour>
    <contour>
      <point x="610" y="0" type="move" name="bot"/>
    </contour>
    <contour>
      <point x="611" y="1082" type="move" name="top"/>
    </contour>
  </outline>
</glyph>
<glyph name="d" format="1">
  <advance width="1239.900"/>
  <unicode hex="0064"/>
  <outline>
    <contour>
      <point x="873" y="1540" type="line"/>
      <point x="873" y="1140" type="line"/>
      <point x="885" y="862" type="line"/>
      <point x="921" y="876" type="line"/>
      <point x="858" y="1001"/>
      <point x="761" y="1102"/>
      <point x="559" y="1102" type="curve" smooth="yes"/>
      <point x="278" y="1102"/>
      <point x="109" y="879"/>
      <point x="109" y="539" type="curve" smooth="yes"/>
      <point x="110" y="205"/>
      <point x="272" y="-20"/>
      <point x="560" y="-20" type="curve" smooth="yes"/>
      <point x="781" y="-20"/>
      <point x="876" y="115"/>
      <point x="923" y="234" type="curve"/>
      <point x="878" y="236" type="line"/>
      <point x="905" y="0" type="line"/>
      <point x="1076" y="0" type="line"/>
      <point x="1076" y="1560" type="line"/>
    </contour>
    <contour>
      <point x="778" y="947"/>
      <point x="881" y="819"/>
      <point x="881" y="519" type="curve"/>
      <point x="880" y="274"/>
      <point x="788" y="136"/>
      <point x="591" y="136" type="curve" smooth="yes"/>
      <point x="400" y="136"/>
      <point x="313" y="285"/>
      <point x="312" y="535" type="curve" smooth="yes"/>
      <point x="312" y="812"/>
      <point x="419" y="947"/>
      <point x="601" y="947" type="curve" smooth="yes"/>
    </contour>
    <contour>
      <point x="562" y="1082" type="move" name="top"/>
    </contour>
    <contour>
      <point x="1011" y="1082" type="move" name="caron.alt"/>
    </contour>
    <contour>
      <point x="939" y="1254" type="move" name="mid"/>
    </contour>
  </outline>
</glyph>
<glyph name="e" format="1">
  <advance width="1169.200"/>
  <unicode hex="0065"/>
  <outline>
    <contour>
      <point x="651" y="-20" type="curve" smooth="yes"/>
      <point x="811" y="-20"/>
      <point x="929" y="13"/>
      <point x="1030" y="73" type="curve"/>
      <point x="994" y="208" type="line"/>
      <point x="974" y="208" type="line"/>
      <point x="897" y="166"/>
      <point x="790" y="134"/>
      <point x="664" y="134" type="curve" smooth="yes"/>
      <point x="466" y="134"/>
      <point x="311" y="269"/>
      <point x="311" y="548" type="curve"/>
      <point x="265" y="509" type="line"/>
      <point x="1050" y="509" type="line"/>
      <point x="1050" y="509"/>
      <point x="1057" y="582"/>
      <point x="1057" y="604" type="curve" smooth="yes"/>
      <point x="1057" y="900"/>
      <point x="895" y="1102"/>
      <point x="618" y="1102" type="curve" smooth="yes"/>
      <point x="335" y="1101"/>
      <point x="109" y="888"/>
      <point x="109" y="547" type="curve" smooth="yes"/>
      <point x="109" y="206"/>
      <point x="339" y="-20"/>
    </contour>
    <contour>
      <point x="873" y="598" type="line"/>
      <point x="870" y="833"/>
      <point x="783" y="953"/>
      <point x="622" y="953" type="curve" smooth="yes"/>
      <point x="464" y="953"/>
      <point x="321" y="824"/>
      <point x="316" y="600" type="curve"/>
      <point x="266" y="640" type="line"/>
      <point x="918" y="640" type="line"/>
    </contour>
    <contour>
      <point x="585" y="0" type="move" name="bot"/>
    </contour>
    <contour>
      <point x="619" y="1082" type="move" name="top"/>
    </contour>
    <contour>
      <point x="0" y="0" type="move" name="ogonek"/>
    </contour>
  </outline>
</glyph>
<glyph name="f" format="1">
  <advance width="771.900"/>
  <unicode hex="0066"/>
  <outline>
    <contour>
      <point x="383" y="1498"/>
      <point x="255" y="1415"/>
      <point x="255" y="1135" type="curve" smooth="yes"/>
      <point x="255" y="1040" type="line"/>
      <point x="300" y="1085" type="line"/>
      <point x="82" y="1064" type="line"/>
      <point x="77" y="947" type="line"/>
      <point x="293" y="947" type="line"/>
      <point x="255" y="998" type="line"/>
      <point x="255" y="0" type="line"/>
      <point x="458" y="0" type="line"/>
      <point x="458" y="995" type="line"/>
      <point x="416" y="947" type="line"/>
      <point x="708" y="947" type="line"/>
      <point x="708" y="1082" type="line"/>
      <point x="410" y="1082" type="line"/>
      <point x="458" y="1041" type="line"/>
      <point x="458" y="1149" type="line" smooth="yes"/>
      <point x="458" y="1325"/>
      <point x="516" y="1348"/>
      <point x="612" y="1348" type="curve" smooth="yes"/>
      <point x="656" y="1348"/>
      <point x="714" y="1340"/>
      <point x="732" y="1337" type="curve"/>
      <point x="748" y="1480" type="line"/>
      <point x="710" y="1488"/>
      <point x="645" y="1498"/>
      <point x="575" y="1498" type="curve" smooth="yes"/>
    </contour>
    <contour>
      <point x="444" y="1456" type="move" name="top"/>
    </contour>
  </outline>
</glyph>
<glyph name="g" format="1">
  <advance width="1249.350"/>
  <unicode hex="0067"/>
  <outline>
    <contour>
      <point x="264" y="-289" type="line"/>
      <point x="264" y="-433" type="line"/>
      <point x="315" y="-451"/>
      <point x="437" y="-468"/>
      <point x="531" y="-468" type="curve" smooth="yes"/>
      <point x="938" y="-466"/>
      <point x="1094" y="-230"/>
      <point x="1094" y="119" type="curve" smooth="yes"/>
      <point x="1094" y="1082" type="line"/>
      <point x="912" y="1082" type="line"/>
      <point x="895" y="873" type="line"/>
      <point x="930" y="878" type="line"/>
      <point x="875" y="1026"/>
      <point x="753" y="1102"/>
      <point x="583" y="1102" type="curve" smooth="yes"/>
      <point x="279" y="1102"/>
      <point x="100" y="864"/>
      <point x="100" y="532" type="curve" smooth="yes"/>
      <point x="100" y="255"/>
      <point x="265" y="12"/>
      <point x="571" y="12" type="curve" smooth="yes"/>
      <point x="758" y="12"/>
      <point x="895" y="103"/>
      <point x="940" y="279" type="curve"/>
      <point x="896" y="284" type="line"/>
      <point x="896" y="60" type="line" smooth="yes"/>
      <point x="896" y="-171"/>
      <point x="790" y="-308"/>
      <point x="514" y="-309" type="curve" smooth="yes"/>
      <point x="448" y="-309"/>
      <point x="340" y="-301"/>
      <point x="293" y="-289" type="curve"/>
    </contour>
    <contour>
      <point x="898" y="591" type="curve" smooth="yes"/>
      <point x="898" y="505" type="line"/>
      <point x="897" y="315"/>
      <point x="817" y="166"/>
      <point x="600" y="166" type="curve" smooth="yes"/>
      <point x="380" y="166"/>
      <point x="303" y="349"/>
      <point x="303" y="539" type="curve" smooth="yes"/>
      <point x="303" y="757"/>
      <point x="388" y="947"/>
      <point x="606" y="947" type="curve" smooth="yes"/>
      <point x="820" y="947"/>
      <point x="899" y="802"/>
    </contour>
    <contour>
      <point x="625" y="0" type="move" name="bot"/>
    </contour>
    <contour>
      <point x="574" y="1082" type="move" name="top"/>
    </contour>
  </outline>
</glyph>
<glyph name="h" format="1">
  <advance width="1213.100"/>
  <unicode hex="0068"/>
  <outline>
    <contour>
      <point x="165" y="1540" type="line"/>
      <point x="165" y="0" type="line"/>
      <point x="366" y="0" type="line"/>
      <point x="366" y="574" type="line" smooth="yes"/>
      <point x="366" y="770"/>
      <point x="425" y="947"/>
      <point x="659" y="947" type="curve" smooth="yes"/>
      <point x="806" y="947"/>
      <point x="857" y="856"/>
      <point x="857" y="666" type="curve" smooth="yes"/>
      <point x="857" y="0" type="line"/>
      <point x="1060" y="0" type="line"/>
      <point x="1060" y="679" type="line" smooth="yes"/>
      <point x="1060" y="957"/>
      <point x="926" y="1102"/>
      <point x="696" y="1102" type="curve" smooth="yes"/>
      <point x="525" y="1102"/>
      <point x="383" y="1018"/>
      <point x="315" y="876" type="curve"/>
      <point x="359" y="859" type="line"/>
      <point x="368" y="1149" type="line"/>
      <point x="368" y="1560" type="line"/>
    </contour>
    <contour>
      <point x="686" y="1427" type="move" name="top"/>
    </contour>
  </outline>
</glyph>
<glyph name="i" format="1">
  <advance width="461"/>
  <unicode hex="0069"/>
  <outline>
    <component base="dotlessi"/>
    <component base="dotaccent" xOffset="39"/>
    <contour>
      <point x="0" y="0" type="move" name="ogonek"/>
    </contour>
  </outline>
</glyph>
<glyph name="k" format="1">
  <advance width="1131.100"/>
  <unicode hex="006B"/>
  <outline>
    <contour>
      <point x="165" y="0" type="line"/>
      <point x="368" y="0" type="line"/>
      <point x="368" y="453" type="line"/>
      <point x="317" y="348" type="line"/>
      <point x="516" y="532" type="line"/>
      <point x="447" y="532" type="line"/>
      <point x="867" y="0" type="line"/>
      <point x="1097" y="0" type="line"/>
      <point x="1097" y="12" type="line"/>
      <point x="594" y="643" type="line"/>
      <point x="594" y="551" type="line"/>
      <point x="1077" y="1070" type="line"/>
      <point x="1077" y="1082" type="line"/>
      <point x="839" y="1082" type="line"/>
      <point x="321" y="535" type="line"/>
      <point x="361" y="535" type="line"/>
      <point x="368" y="790" type="line"/>
      <point x="368" y="1560" type="line"/>
      <point x="165" y="1540" type="line"/>
    </contour>
    <contour>
      <point x="577" y="0" type="move" name="bot"/>
    </contour>
    <contour>
      <point x="749" y="1082" type="move" name="top"/>
    </contour>
  </outline>
</glyph>
<glyph name="l" format="1">
  <advance width="695.300"/>
  <unicode hex="006C"/>
  <outline>
    <contour>
      <point x="165" y="1540" type="line"/>
      <point x="165" y="338" type="line" smooth="yes"/>
      <point x="165" y="75"/>
      <point x="289" y="-13"/>
      <point x="508" y="-13" type="curve" smooth="yes"/>
      <point x="592" y="-13"/>
      <point x="665" y="9"/>
      <point x="675" y="10" type="curve"/>
      <point x="675" y="147" type="line"/>
      <point x="670" y="147"/>
      <point x="608" y="138"/>
      <point x="544" y="138" type="curve" smooth="yes"/>
      <point x="431" y="138"/>
      <point x="368" y="168"/>
      <point x="368" y="318" type="curve" smooth="yes"/>
      <point x="368" y="1560" type="line"/>
    </contour>
    <contour>
      <point x="315" y="852" type="move" name="mid"/>
    </contour>
    <contour>
      <point x="305" y="1082" type="move" name="caron.alt"/>
    </contour>
    <contour>
      <point x="279" y="1456" type="move" name="top"/>
    </contour>
  </outline>
</glyph>
<glyph name="m" format="1">
  <advance width="1791.500"/>
  <unicode hex="006D"/>
  <outline>
    <contour>
      <point x="1137" y="1102"/>
      <point x="1014" y="1012"/>
      <point x="939" y="860" type="curve"/>
      <point x="986" y="860" type="line"/>
      <point x="936" y="1000"/>
      <point x="860" y="1102"/>
      <point x="675" y="1102" type="curve" smooth="yes"/>
      <point x="496" y="1102"/>
      <point x="379" y="1003"/>
      <point x="312" y="876" type="curve"/>
      <point x="361" y="868" type="line"/>
      <point x="330" y="1082" type="line"/>
      <point x="165" y="1082" type="line"/>
      <point x="165" y="0" type="line"/>
      <point x="368" y="0" type="line"/>
      <point x="368" y="618" type="line" smooth="yes"/>
      <point x="368" y="806"/>
      <point x="451" y="947"/>
      <point x="629" y="947" type="curve" smooth="yes"/>
      <point x="771" y="947"/>
      <point x="805" y="843"/>
      <point x="805" y="621" type="curve" smooth="yes"/>
      <point x="805" y="0" type="line"/>
      <point x="1008" y="0" type="line"/>
      <point x="1008" y="591" type="line"/>
      <point x="1011" y="662"/>
      <point x="1015" y="712"/>
      <point x="1025" y="745" type="curve" smooth="yes"/>
      <point x="1060" y="878"/>
      <point x="1150" y="947"/>
      <point x="1264" y="947" type="curve" smooth="yes"/>
      <point x="1429" y="947"/>
      <point x="1436" y="792"/>
      <point x="1436" y="622" type="curve" smooth="yes"/>
      <point x="1436" y="0" type="line"/>
      <point x="1639" y="0" type="line"/>
      <point x="1639" y="699" type="line" smooth="yes"/>
      <point x="1639" y="960"/>
      <point x="1533" y="1102"/>
      <point x="1303" y="1102" type="curve" smooth="yes"/>
    </contour>
    <contour>
      <point x="896" y="0" type="move" name="bot"/>
    </contour>
    <contour>
      <point x="973" y="1082" type="move" name="top"/>
    </contour>
  </outline>
</glyph>
<glyph name="n" format="1">
  <advance width="1229.650"/>
  <unicode hex="006E"/>
  <outline>
    <contour>
      <point x="521" y="1102"/>
      <point x="396" y="1014"/>
      <point x="319" y="882" type="curve"/>
      <point x="366" y="882" type="line"/>
      <point x="336" y="1082" type="line"/>
      <point x="165" y="1082" type="line"/>
      <point x="165" y="0" type="line"/>
      <point x="368" y="0" type="line"/>
      <point x="368" y="584" type="line" smooth="yes"/>
      <point x="368" y="787"/>
      <point x="437" y="947"/>
      <point x="675" y="947" type="curve" smooth="yes"/>
      <point x="831" y="947"/>
      <point x="873" y="845"/>
      <point x="873" y="675" type="curve"/>
      <point x="873" y="0" type="line"/>
      <point x="1076" y="0" type="line"/>
      <point x="1076" y="674" type="line" smooth="yes"/>
      <point x="1076" y="954"/>
      <point x="963" y="1102"/>
      <point x="718" y="1102" type="curve" smooth="yes"/>
    </contour>
    <contour>
      <point x="615" y="0" type="move" name="bot"/>
    </contour>
    <contour>
      <point x="643" y="1082" type="move" name="top"/>
    </contour>
  </outline>
</glyph>
<glyph name="o" format="1">
  <advance width="1234.700"/>
  <unicode hex="006F"/>
  <outline>
    <contour>
      <point x="302" y="1102"/>
      <point x="109" y="882"/>
      <point x="109" y="531" type="curve" smooth="yes"/>
      <point x="110" y="205"/>
      <point x="310" y="-20"/>
      <point x="617" y="-20" type="curve" smooth="yes"/>
      <point x="924" y="-20"/>
      <point x="1125" y="204"/>
      <point x="1125" y="531" type="curve" smooth="yes"/>
      <point x="1125" y="880"/>
      <point x="930" y="1102"/>
      <point x="617" y="1102" type="curve" smooth="yes"/>
    </contour>
    <contour>
      <point x="819" y="947"/>
      <point x="923" y="788"/>
      <point x="923" y="529" type="curve" smooth="yes"/>
      <point x="924" y="291"/>
      <point x="820" y="135"/>
      <point x="617" y="135" type="curve" smooth="yes"/>
      <point x="419" y="135"/>
      <point x="312" y="292"/>
      <point x="311" y="530" type="curve" smooth="yes"/>
      <point x="311" y="789"/>
      <point x="420" y="947"/>
      <point x="617" y="947" type="curve" smooth="yes"/>
    </contour>
    <contour>
      <point x="617" y="0" type="move" name="bot"/>
    </contour>
    <contour>
      <point x="676" y="0" type="move" name="ogonek"/>
    </contour>
    <contour>
      <point x="617" y="1082" type="move" name="top"/>
    </contour>
  </outline>
</glyph>
<glyph name="p" format="1">
  <advance width="1241.550"/>
  <unicode hex="0070"/>
  <outline>
    <contour>
      <point x="166" y="-451" type="line"/>
      <point x="368" y="-441" type="line"/>
      <point x="368" y="-48" type="line"/>
      <point x="359" y="232" type="line"/>
      <point x="315" y="204" type="line"/>
      <point x="361" y="93"/>
      <point x="483" y="-19"/>
      <point x="689" y="-19" type="curve" smooth="yes"/>
      <point x="968" y="-19"/>
      <point x="1132" y="220"/>
      <point x="1132" y="540" type="curve" smooth="yes"/>
      <point x="1132" y="869"/>
      <point x="978" y="1102"/>
      <point x="697" y="1102" type="curve" smooth="yes"/>
      <point x="533" y="1102"/>
      <point x="392" y="1012"/>
      <point x="318" y="855" type="curve"/>
      <point x="365" y="853" type="line"/>
      <point x="337" y="1082" type="line"/>
      <point x="166" y="1082" type="line"/>
    </contour>
    <contour>
      <point x="654" y="136" type="curve" smooth="yes"/>
      <point x="488" y="136"/>
      <point x="402" y="234"/>
      <point x="365" y="304" type="curve"/>
      <point x="365" y="559" type="line"/>
      <point x="367" y="808"/>
      <point x="460" y="947"/>
      <point x="657" y="947" type="curve" smooth="yes"/>
      <point x="842" y="947"/>
      <point x="929" y="798"/>
      <point x="929" y="542" type="curve" smooth="yes"/>
      <point x="929" y="294"/>
      <point x="836" y="136"/>
    </contour>
    <contour>
      <point x="621" y="0" type="move" name="bot"/>
    </contour>
    <contour>
      <point x="685" y="1082" type="move" name="top"/>
    </contour>
  </outline>
</glyph>
<glyph name="q" format="1">
  <advance width="1259.600"/>
  <unicode hex="0071"/>
  <outline>
    <contour>
      <point x="275" y="1102"/>
      <point x="109" y="870"/>
      <point x="109" y="528" type="curve" smooth="yes"/>
      <point x="110" y="209"/>
      <point x="294" y="-19"/>
      <point x="569" y="-19" type="curve" smooth="yes"/>
      <point x="775" y="-19"/>
      <point x="886" y="97"/>
      <point x="948" y="241" type="curve"/>
      <point x="901" y="261" type="line"/>
      <point x="894" y="-40" type="line"/>
      <point x="894" y="-451" type="line"/>
      <point x="1096" y="-440" type="line"/>
      <point x="1096" y="1082" type="line"/>
      <point x="915" y="1082" type="line"/>
      <point x="891" y="862" type="line"/>
      <point x="931" y="874" type="line"/>
      <point x="873" y="995"/>
      <point x="767" y="1102"/>
      <point x="569" y="1102" type="curve" smooth="yes"/>
    </contour>
    <contour>
      <point x="807" y="947"/>
      <point x="896" y="808"/>
      <point x="896" y="541" type="curve"/>
      <point x="896" y="274"/>
      <point x="814" y="135"/>
      <point x="602" y="135" type="curve" smooth="yes"/>
      <point x="412" y="135"/>
      <point x="312" y="283"/>
      <point x="311" y="533" type="curve" smooth="yes"/>
      <point x="311" y="798"/>
      <point x="411" y="947"/>
      <point x="602" y="947" type="curve" smooth="yes"/>
    </contour>
  </outline>
</glyph>
<glyph name="r" format="1">
  <advance width="823.300"/>
  <unicode hex="0072"/>
  <outline>
    <contour>
      <point x="553" y="1090"/>
      <point x="405" y="1016"/>
      <point x="316" y="822" type="curve"/>
      <point x="363" y="814" type="line"/>
      <point x="332" y="1082" type="line"/>
      <point x="166" y="1082" type="line"/>
      <point x="165" y="0" type="line"/>
      <point x="368" y="0" type="line"/>
      <point x="368" y="612" type="line" smooth="yes"/>
      <point x="368" y="789"/>
      <point x="493" y="924"/>
      <point x="677" y="924" type="curve" smooth="yes"/>
      <point x="701" y="924"/>
      <point x="727" y="922"/>
      <point x="756" y="916" type="curve"/>
      <point x="762" y="1085" type="line"/>
      <point x="737" y="1089"/>
      <point x="711" y="1090"/>
      <point x="683" y="1090" type="curve" smooth="yes"/>
    </contour>
    <contour>
      <point x="242" y="0" type="move" name="bot"/>
    </contour>
    <contour>
      <point x="495" y="1082" type="move" name="top"/>
    </contour>
  </outline>
</glyph>
<glyph name="s" format="1">
  <advance width="977.750"/>
  <unicode hex="0073"/>
  <outline>
    <contour>
      <point x="190" y="188" type="line"/>
      <point x="146" y="64" type="line"/>
      <point x="176" y="46"/>
      <point x="319" y="-18"/>
      <point x="496" y="-18" type="curve" smooth="yes"/>
      <point x="735" y="-18"/>
      <point x="875" y="96"/>
      <point x="875" y="299" type="curve" smooth="yes"/>
      <point x="875" y="465"/>
      <point x="803" y="558"/>
      <point x="587" y="620" type="curve" smooth="yes"/>
      <point x="496" y="646" type="line" smooth="yes"/>
      <point x="355" y="687"/>
      <point x="320" y="726"/>
      <point x="320" y="809" type="curve" smooth="yes"/>
      <point x="320" y="895"/>
      <point x="389" y="953"/>
      <point x="530" y="953" type="curve" smooth="yes"/>
      <point x="631" y="953"/>
      <point x="706" y="927"/>
      <point x="763" y="902" type="curve"/>
      <point x="786" y="902" type="line"/>
      <point x="831" y="1033" type="line"/>
      <point x="732" y="1080"/>
      <point x="636" y="1102"/>
      <point x="509" y="1102" type="curve" smooth="yes"/>
      <point x="286" y="1102"/>
      <point x="141" y="982"/>
      <point x="141" y="793" type="curve"/>
      <point x="142" y="649"/>
      <point x="213" y="554"/>
      <point x="405" y="500" type="curve" smooth="yes"/>
      <point x="510" y="471" type="line" smooth="yes"/>
      <point x="665" y="426"/>
      <point x="700" y="384"/>
      <point x="697" y="282" type="curve" smooth="yes"/>
      <point x="694" y="185"/>
      <point x="630" y="129"/>
      <point x="496" y="129" type="curve" smooth="yes"/>
      <point x="394" y="129"/>
      <point x="290" y="163"/>
      <point x="229" y="188" type="curve"/>
    </contour>
    <contour>
      <point x="489" y="0" type="move" name="bot"/>
    </contour>
    <contour>
      <point x="512" y="1082" type="move" name="top"/>
    </contour>
  </outline>
</glyph>
<glyph name="t" format="1">
  <advance width="847.750"/>
  <unicode hex="0074"/>
  <outline>
    <contour>
      <point x="295" y="1347" type="line"/>
      <point x="235" y="1045" type="line"/>
      <point x="291" y="1085" type="line"/>
      <point x="82" y="1070" type="line"/>
      <point x="73" y="955" type="line"/>
      <point x="270" y="955" type="line"/>
      <point x="233" y="997" type="line"/>
      <point x="233" y="349" type="line" smooth="yes"/>
      <point x="233" y="103"/>
      <point x="342" y="-13"/>
      <point x="568" y="-13" type="curve" smooth="yes"/>
      <point x="688" y="-13"/>
      <point x="763" y="13"/>
      <point x="763" y="13" type="curve"/>
      <point x="763" y="148" type="line"/>
      <point x="763" y="148"/>
      <point x="668" y="136"/>
      <point x="607" y="136" type="curve" smooth="yes"/>
      <point x="503" y="136"/>
      <point x="436" y="173"/>
      <point x="436" y="345" type="curve" smooth="yes"/>
      <point x="436" y="996" type="line"/>
      <point x="398" y="955" type="line"/>
      <point x="740" y="955" type="line"/>
      <point x="740" y="1082" type="line"/>
      <point x="398" y="1082" type="line"/>
      <point x="436" y="1036" type="line"/>
      <point x="436" y="1349" type="line"/>
    </contour>
    <contour>
      <point x="368" y="1082" type="move" name="caron.alt"/>
    </contour>
    <contour>
      <point x="331" y="1282" type="move" name="top"/>
    </contour>
    <contour>
      <point x="387" y="576" type="move" name="mid"/>
    </contour>
    <contour>
      <point x="484" y="0" type="move" name="bot"/>
    </contour>
  </outline>
</glyph>
<glyph name="u" format="1">
  <advance width="1228.650"/>
  <unicode hex="0075"/>
  <outline>
    <contour>
      <point x="863" y="1082" type="line"/>
      <point x="863" y="234" type="line"/>
      <point x="884" y="323" type="line"/>
      <point x="841" y="237"/>
      <point x="748" y="132"/>
      <point x="574" y="132" type="curve" smooth="yes"/>
      <point x="410" y="132"/>
      <point x="357" y="234"/>
      <point x="357" y="405" type="curve" smooth="yes"/>
      <point x="357" y="1082" type="line"/>
      <point x="155" y="1082" type="line"/>
      <point x="155" y="406" type="line" smooth="yes"/>
      <point x="154" y="120"/>
      <point x="274" y="-23"/>
      <point x="519" y="-23" type="curve" smooth="yes"/>
      <point x="715" y="-23"/>
      <point x="842" y="42"/>
      <point x="917" y="212" type="curve"/>
      <point x="871" y="212" type="line"/>
      <point x="901" y="0" type="line"/>
      <point x="1065" y="0" type="line"/>
      <point x="1065" y="1082" type="line"/>
    </contour>
    <contour>
      <point x="614" y="0" type="move" name="bot"/>
    </contour>
    <contour>
      <point x="996" y="0" type="move" name="ogonek"/>
    </contour>
    <contour>
      <point x="632" y="1082" type="move" name="top"/>
    </contour>
  </outline>
</glyph>
<glyph name="v" format="1">
  <advance width="1103.600"/>
  <unicode hex="0076"/>
  <outline>
    <contour>
      <point x="459" y="0" type="line"/>
      <point x="659" y="0" type="line"/>
      <point x="1057" y="1082" type="line"/>
      <point x="848" y="1082" type="line"/>
      <point x="644" y="469" type="line"/>
      <point x="539" y="144" type="line"/>
      <point x="583" y="144" type="line"/>
      <point x="470" y="468" type="line"/>
      <point x="258" y="1082" type="line"/>
      <point x="47" y="1082" type="line"/>
    </contour>
  </outline>
</glyph>
<glyph name="w" format="1">
  <advance width="1600.650"/>
  <unicode hex="0077"/>
  <outline>
    <contour>
      <point x="1361" y="1082" type="line"/>
      <point x="1139" y="165" type="line"/>
      <point x="1176" y="165" type="line"/>
      <point x="907" y="1082" type="line"/>
      <point x="699" y="1082" type="line"/>
      <point x="436" y="165" type="line"/>
      <point x="470" y="165" type="line"/>
      <point x="244" y="1082" type="line"/>
      <point x="50" y="1082" type="line"/>
      <point x="350" y="0" type="line"/>
      <point x="543" y="0" type="line"/>
      <point x="821" y="954" type="line"/>
      <point x="783" y="954" type="line"/>
      <point x="1067" y="0" type="line"/>
      <point x="1253" y="0" type="line"/>
      <point x="1551" y="1082" type="line"/>
    </contour>
    <contour>
      <point x="800" y="0" type="move" name="bot"/>
    </contour>
    <contour>
      <point x="802" y="1082" type="move" name="top"/>
    </contour>
  </outline>
</glyph>
<glyph name="x" format="1">
  <advance width="1100"/>
  <unicode hex="0078"/>
  <outline>
    <contour>
      <point x="823" y="1082" type="line"/>
      <point x="533" y="654" type="line"/>
      <point x="454" y="587" type="line"/>
      <point x="41" y="0" type="line"/>
      <point x="267" y="0" type="line"/>
      <point x="570" y="437" type="line"/>
      <point x="649" y="505" type="line"/>
      <point x="1048" y="1082" type="line"/>
    </contour>
    <contour>
      <point x="63" y="1082" type="line"/>
      <point x="828" y="0" type="line"/>
      <point x="1056" y="0" type="line"/>
      <point x="291" y="1082" type="line"/>
    </contour>
  </outline>
</glyph>
<glyph name="y" format="1">
  <advance width="1103.600"/>
  <unicode hex="0079"/>
  <outline>
    <contour>
      <point x="1061" y="1082" type="line"/>
      <point x="853" y="1082" type="line"/>
      <point x="559" y="196" type="line"/>
      <point x="514" y="104" type="line"/>
      <point x="331" y="-365" type="line"/>
      <point x="512" y="-397" type="line"/>
    </contour>
    <contour>
      <point x="603" y="194" type="line"/>
      <point x="276" y="1082" type="line"/>
      <point x="68" y="1082" type="line"/>
      <point x="511" y="-41" type="line"/>
    </contour>
    <contour>
      <point x="552" y="0" type="move" name="bot"/>
    </contour>
    <contour>
      <point x="563" y="1082" type="move" name="top"/>
    </contour>
  </outline>
</glyph>
<glyph name="z" format="1">
  <advance width="966.850"/>
  <unicode hex="007A"/>
  <outline>
    <contour>
      <point x="138" y="1082" type="line"/>
      <point x="138" y="938" type="line"/>
      <point x="703" y="938" type="line"/>
      <point x="679" y="997" type="line"/>
      <point x="116" y="128" type="line"/>
      <point x="116" y="0" type="line"/>
      <point x="868" y="0" type="line"/>
      <point x="868" y="148" type="line"/>
      <point x="282" y="148" type="line"/>
      <point x="303" y="83" type="line"/>
      <point x="856" y="943" type="line"/>
      <point x="856" y="1082" type="line"/>
    </contour>
    <contour>
      <point x="483" y="0" type="move" name="bot"/>
    </contour>
    <contour>
      <point x="505" y="1082" type="move" name="top"/>
    </contour>
  </outline>
</glyph>
<glyph name="braceleft" format="1">
  <advance width="741.850"/>
  <unicode hex="007B"/>
  <outline>
    <contour>
      <point x="645" y="-268" type="curve"/>
      <point x="645" y="-117" type="line"/>
      <point x="505" y="-115"/>
      <point x="470" y="-63"/>
      <point x="470" y="85" type="curve" smooth="yes"/>
      <point x="470" y="342" type="line" smooth="yes"/>
      <point x="470" y="487"/>
      <point x="416" y="563"/>
      <point x="293" y="598" type="curve"/>
      <point x="420" y="649"/>
      <point x="469" y="725"/>
      <point x="470" y="866" type="curve"/>
      <point x="470" y="1122" type="line" smooth="yes"/>
      <point x="470" y="1274"/>
      <point x="507" y="1323"/>
      <point x="645" y="1325" type="curve"/>
      <point x="645" y="1478" type="line"/>
      <point x="413" y="1478"/>
      <point x="290" y="1388"/>
      <point x="290" y="1182" type="curve" smooth="yes"/>
      <point x="290" y="935" type="line" smooth="yes"/>
      <point x="290" y="775"/>
      <point x="265" y="682"/>
      <point x="84" y="682" type="curve"/>
      <point x="84" y="521" type="line"/>
      <point x="264" y="519"/>
      <point x="290" y="425"/>
      <point x="290" y="264" type="curve" smooth="yes"/>
      <point x="290" y="52" type="line" smooth="yes"/>
      <point x="290" y="-170"/>
      <point x="398" y="-268"/>
    </contour>
  </outline>
</glyph>
<glyph name="bar" format="1">
  <advance width="433.100"/>
  <unicode hex="007C"/>
  <outline>
    <contour>
      <point x="152" y="1543" type="line"/>
      <point x="152" y="-332" type="line"/>
      <point x="307" y="-332" type="line"/>
      <point x="307" y="1543" type="line"/>
    </contour>
  </outline>
</glyph>
<glyph name="braceright" format="1">
  <advance width="741.850"/>
  <unicode hex="007D"/>
  <outline>
    <contour>
      <point x="102" y="-268" type="line"/>
      <point x="337" y="-267"/>
      <point x="456" y="-179"/>
      <point x="456" y="26" type="curve" smooth="yes"/>
      <point x="456" y="268" type="line" smooth="yes"/>
      <point x="456" y="429"/>
      <point x="486" y="524"/>
      <point x="663" y="524" type="curve"/>
      <point x="663" y="684" type="line"/>
      <point x="480" y="686"/>
      <point x="456" y="777"/>
      <point x="456" y="938" type="curve" smooth="yes"/>
      <point x="456" y="1155" type="line" smooth="yes"/>
      <point x="456" y="1381"/>
      <point x="349" y="1478"/>
      <point x="102" y="1478" type="curve"/>
      <point x="102" y="1327" type="line"/>
      <point x="242" y="1325"/>
      <point x="276" y="1272"/>
      <point x="276" y="1122" type="curve" smooth="yes"/>
      <point x="276" y="867" type="line"/>
      <point x="277" y="749"/>
      <point x="327" y="647"/>
      <point x="454" y="606" type="curve"/>
      <point x="324" y="552"/>
      <point x="276" y="467"/>
      <point x="276" y="343" type="curve" smooth="yes"/>
      <point x="276" y="86" type="line" smooth="yes"/>
      <point x="276" y="-67"/>
      <point x="240" y="-114"/>
      <point x="102" y="-116" type="curve"/>
    </contour>
  </outline>
</glyph>
<glyph name="asciitilde" format="1">
  <advance width="1168.700"/>
  <unicode hex="007E"/>
  <outline>
    <contour>
      <point x="834" y="645" type="curve" smooth="yes"/>
      <point x="777" y="645"/>
      <point x="704" y="677"/>
      <point x="613" y="717" type="curve" smooth="yes"/>
      <point x="521" y="757"/>
      <point x="454" y="781"/>
      <point x="374" y="781" type="curve" smooth="yes"/>
      <point x="240" y="781"/>
      <point x="155" y="696"/>
      <point x="109" y="591" type="curve"/>
      <point x="167" y="478" type="line"/>
      <point x="210" y="559"/>
      <point x="283" y="628"/>
      <point x="369" y="628" type="curve" smooth="yes"/>
      <point x="438" y="628"/>
      <point x="505" y="598"/>
      <point x="596" y="556" type="curve"/>
      <point x="681" y="518"/>
      <point x="751" y="491"/>
      <point x="828" y="491" type="curve" smooth="yes"/>
      <point x="956" y="491"/>
      <point x="1049" y="572"/>
      <point x="1098" y="683" type="curve"/>
      <point x="1038" y="789" type="line"/>
      <point x="986" y="704"/>
      <point x="912" y="645"/>
    </contour>
  </outline>
</glyph>
<glyph name="cent" format="1">
  <advance width="966.250"/>
  <unicode hex="00A2"/>
  <outline>
    <contour>
      <point x="567" y="1224" type="line"/>
      <point x="567" y="-154" type="line"/>
      <point x="651" y="-154" type="line"/>
      <point x="651" y="1224" type="line"/>
    </contour>
    <component base="c"/>
  </outline>
</glyph>
<glyph name="sterling" format="1">
  <advance width="1093.300"/>
  <unicode hex="00A3"/>
  <outline>
    <contour>
      <point x="348" y="1452"/>
      <point x="271" y="1196"/>
      <point x="271" y="900" type="curve" smooth="yes"/>
      <point x="271" y="797" type="line"/>
      <point x="92" y="797" type="line"/>
      <point x="92" y="653" type="line"/>
      <point x="271" y="653" type="line"/>
      <point x="271" y="173" type="line"/>
      <point x="96" y="155" type="line"/>
      <point x="107" y="5" type="line"/>
      <point x="1040" y="5" type="line"/>
      <point x="1050" y="175" type="line"/>
      <point x="454" y="175" type="line"/>
      <point x="454" y="653" type="line"/>
      <point x="842" y="653" type="line"/>
      <point x="842" y="797" type="line"/>
      <point x="454" y="797" type="line"/>
      <point x="454" y="970" type="line" smooth="yes"/>
      <point x="454" y="1167"/>
      <point x="512" y="1292"/>
      <point x="689" y="1292" type="curve" smooth="yes"/>
      <point x="787" y="1292"/>
      <point x="868" y="1257"/>
      <point x="952" y="1194" type="curve"/>
      <point x="1035" y="1324" type="line"/>
      <point x="946" y="1399"/>
      <point x="830" y="1452"/>
      <point x="685" y="1452" type="curve" smooth="yes"/>
    </contour>
  </outline>
</glyph>
<glyph name="currency" format="1">
  <advance width="1186.650"/>
  <unicode hex="00A4"/>
  <outline>
    <contour>
      <point x="859" y="1024" type="line"/>
      <point x="789" y="1080"/>
      <point x="705" y="1112"/>
      <point x="611" y="1112" type="curve" smooth="yes"/>
      <point x="517" y="1112"/>
      <point x="430" y="1080"/>
      <point x="361" y="1025" type="curve"/>
      <point x="185" y="1192" type="line"/>
      <point x="106" y="1116" type="line"/>
      <point x="285" y="944" type="line"/>
      <point x="236" y="874"/>
      <point x="209" y="794"/>
      <point x="209" y="708" type="curve" smooth="yes"/>
      <point x="209" y="620"/>
      <point x="236" y="540"/>
      <point x="285" y="472" type="curve"/>
      <point x="107" y="302" type="line"/>
      <point x="185" y="225" type="line"/>
      <point x="360" y="391" type="line"/>
      <point x="430" y="335"/>
      <point x="515" y="305"/>
      <point x="611" y="305" type="curve" smooth="yes"/>
      <point x="705" y="305"/>
      <point x="790" y="336"/>
      <point x="859" y="391" type="curve"/>
      <point x="1038" y="223" type="line"/>
      <point x="1111" y="302" type="line"/>
      <point x="936" y="472" type="line"/>
      <point x="986" y="540"/>
      <point x="1011" y="619"/>
      <point x="1011" y="708" type="curve" smooth="yes"/>
      <point x="1011" y="793"/>
      <point x="985" y="874"/>
      <point x="935" y="944" type="curve"/>
      <point x="1112" y="1114" type="line"/>
      <point x="1038" y="1192" type="line"/>
    </contour>
    <contour>
      <point x="780" y="1000"/>
      <point x="896" y="867"/>
      <point x="896" y="708" type="curve" smooth="yes"/>
      <point x="896" y="549"/>
      <point x="781" y="416"/>
      <point x="610" y="416" type="curve" smooth="yes"/>
      <point x="441" y="416"/>
      <point x="325" y="548"/>
      <point x="325" y="708" type="curve" smooth="yes"/>
      <point x="325" y="867"/>
      <point x="441" y="1000"/>
      <point x="610" y="1000" type="curve" smooth="yes"/>
    </contour>
  </outline>
</glyph>
<glyph name="yen" format="1">
  <advance width="1243.050"/>
  <unicode hex="00A5"/>
  <outline>
    <contour>
      <point x="999" y="1433" type="line"/>
      <point x="646" y="750" type="line"/>
      <point x="281" y="1433" type="line"/>
      <point x="55" y="1433" type="line"/>
      <point x="480" y="674" type="line"/>
      <point x="223" y="674" type="line"/>
      <point x="223" y="549" type="line"/>
      <point x="538" y="549" type="line"/>
      <point x="538" y="389" type="line"/>
      <point x="222" y="389" type="line"/>
      <point x="222" y="260" type="line"/>
      <point x="538" y="260" type="line"/>
      <point x="538" y="0" type="line"/>
      <point x="756" y="0" type="line"/>
      <point x="756" y="260" type="line"/>
      <point x="1067" y="260" type="line"/>
      <point x="1067" y="389" type="line"/>
      <point x="756" y="389" type="line"/>
      <point x="756" y="549" type="line"/>
      <point x="1067" y="549" type="line"/>
      <point x="1067" y="674" type="line"/>
      <point x="811" y="674" type="line"/>
      <point x="1223" y="1433" type="line"/>
    </contour>
  </outline>
</glyph>
<glyph name="brokenbar" format="1">
  <advance width="471.400"/>
  <unicode hex="00A6"/>
  <outline>
    <contour>
      <point x="170" y="420" type="line"/>
      <point x="170" y="-269" type="line"/>
      <point x="325" y="-269" type="line"/>
      <point x="325" y="420" type="line"/>
    </contour>
    <contour>
      <point x="170" y="1443" type="line"/>
      <point x="170" y="756" type="line"/>
      <point x="325" y="756" type="line"/>
      <point x="325" y="1443" type="line"/>
    </contour>
  </outline>
</glyph>
<glyph name="dieresis" format="1">
  <advance width="718.150"/>
  <unicode hex="00A8"/>
  <outline>
    <contour>
      <point x="140" y="1233" type="curve" smooth="yes"/>
      <point x="201" y="1233"/>
      <point x="236" y="1280"/>
      <point x="236" y="1329" type="curve" smooth="yes"/>
      <point x="236" y="1380"/>
      <point x="201" y="1427"/>
      <point x="140" y="1427" type="curve" smooth="yes"/>
      <point x="79" y="1427"/>
      <point x="44" y="1380"/>
      <point x="44" y="1329" type="curve" smooth="yes"/>
      <point x="44" y="1280"/>
      <point x="80" y="1233"/>
    </contour>
    <contour>
      <point x="578" y="1233" type="curve" smooth="yes"/>
      <point x="639" y="1233"/>
      <point x="674" y="1280"/>
      <point x="674" y="1329" type="curve" smooth="yes"/>
      <point x="674" y="1380"/>
      <point x="639" y="1427"/>
      <point x="578" y="1427" type="curve" smooth="yes"/>
      <point x="517" y="1427"/>
      <point x="482" y="1380"/>
      <point x="482" y="1329" type="curve" smooth="yes"/>
      <point x="482" y="1280"/>
      <point x="518" y="1233"/>
    </contour>
    <contour>
      <point x="359" y="1082" type="move" name="_top"/>
    </contour>
  </outline>
</glyph>
<glyph name="copyright" format="1">
  <advance width="1698.700"/>
  <unicode hex="00A9"/>
  <outline>
    <contour>
      <point x="86" y="737" type="curve" smooth="yes"/>
      <point x="86" y="259"/>
      <point x="458" y="-18"/>
      <point x="848" y="-18" type="curve" smooth="yes"/>
      <point x="1241" y="-18"/>
      <point x="1613" y="259"/>
      <point x="1613" y="737" type="curve" smooth="yes"/>
      <point x="1613" y="1215"/>
      <point x="1239" y="1490"/>
      <point x="847" y="1490" type="curve" smooth="yes"/>
      <point x="456" y="1490"/>
      <point x="86" y="1216"/>
    </contour>
    <contour>
      <point x="385" y="732" type="curve" smooth="yes"/>
      <point x="385" y="445"/>
      <point x="595" y="239"/>
      <point x="856" y="239" type="curve" smooth="yes"/>
      <point x="962" y="239"/>
      <point x="1061" y="268"/>
      <point x="1145" y="322" type="curve"/>
      <point x="1104" y="418" type="line"/>
      <point x="1025" y="370"/>
      <point x="940" y="350"/>
      <point x="863" y="350" type="curve" smooth="yes"/>
      <point x="666" y="350"/>
      <point x="521" y="498"/>
      <point x="521" y="736" type="curve" smooth="yes"/>
      <point x="521" y="960"/>
      <point x="665" y="1115"/>
      <point x="857" y="1115" type="curve" smooth="yes"/>
      <point x="929" y="1115"/>
      <point x="1023" y="1092"/>
      <point x="1095" y="1041" type="curve"/>
      <point x="1143" y="1140" type="line"/>
      <point x="1057" y="1199"/>
      <point x="957" y="1227"/>
      <point x="850" y="1227" type="curve" smooth="yes"/>
      <point x="588" y="1227"/>
      <point x="385" y="1012"/>
    </contour>
    <contour>
      <point x="1498" y="737" type="curve" smooth="yes"/>
      <point x="1498" y="330"/>
      <point x="1195" y="78"/>
      <point x="848" y="78" type="curve" smooth="yes"/>
      <point x="503" y="78"/>
      <point x="201" y="329"/>
      <point x="201" y="737" type="curve" smooth="yes"/>
      <point x="201" y="1144"/>
      <point x="503" y="1393"/>
      <point x="847" y="1393" type="curve" smooth="yes"/>
      <point x="1193" y="1393"/>
      <point x="1498" y="1144"/>
    </contour>
  </outline>
</glyph>
<glyph name="guillemotleft" format="1">
  <advance width="971.850"/>
  <unicode hex="00AB"/>
  <outline>
    <contour>
      <point x="372" y="140" type="line"/>
      <point x="522" y="180" type="line"/>
      <point x="265" y="543" type="line"/>
      <point x="528" y="905" type="line"/>
      <point x="375" y="944" type="line"/>
      <point x="80" y="540" type="line"/>
    </contour>
    <contour>
      <point x="744" y="140" type="line"/>
      <point x="895" y="180" type="line"/>
      <point x="638" y="543" type="line"/>
      <point x="900" y="905" type="line"/>
      <point x="747" y="944" type="line"/>
      <point x="453" y="540" type="line"/>
    </contour>
  </outline>
</glyph>
<glyph name="logicalnot" format="1">
  <advance width="1163.200"/>
  <unicode hex="00AC"/>
  <outline>
    <contour>
      <point x="96" y="798" type="line"/>
      <point x="96" y="646" type="line"/>
      <point x="906" y="646" type="line"/>
      <point x="906" y="249" type="line"/>
      <point x="1055" y="249" type="line"/>
      <point x="1055" y="798" type="line"/>
    </contour>
  </outline>
</glyph>
<glyph name="uni00AD" format="1">
  <advance width="848.200"/>
  <unicode hex="00AD"/>
  <outline>
    <contour>
      <point x="96" y="263" type="line"/>
      <point x="778" y="263" type="line"/>
      <point x="778" y="424" type="line"/>
      <point x="96" y="424" type="line"/>
    </contour>
  </outline>
</glyph>
<glyph name="registered" format="1">
  <advance width="1694.300"/>
  <unicode hex="00AE"/>
  <outline>
    <contour>
      <point x="455" y="1490"/>
      <point x="85" y="1212"/>
      <point x="85" y="733" type="curve" smooth="yes"/>
      <point x="85" y="255"/>
      <point x="455" y="-22"/>
      <point x="846" y="-22" type="curve" smooth="yes"/>
      <point x="1237" y="-22"/>
      <point x="1610" y="255"/>
      <point x="1610" y="733" type="curve" smooth="yes"/>
      <point x="1610" y="1211"/>
      <point x="1237" y="1490"/>
      <point x="845" y="1490" type="curve" smooth="yes"/>
    </contour>
    <contour>
      <point x="1191" y="1393"/>
      <point x="1494" y="1140"/>
      <point x="1494" y="733" type="curve" smooth="yes"/>
      <point x="1494" y="326"/>
      <point x="1191" y="75"/>
      <point x="846" y="75" type="curve" smooth="yes"/>
      <point x="502" y="75"/>
      <point x="200" y="325"/>
      <point x="200" y="733" type="curve" smooth="yes"/>
      <point x="200" y="1140"/>
      <point x="501" y="1393"/>
      <point x="845" y="1393" type="curve" smooth="yes"/>
    </contour>
    <contour>
      <point x="545" y="1215" type="line"/>
      <point x="545" y="280" type="line"/>
      <point x="676" y="280" type="line"/>
      <point x="676" y="703" type="line"/>
      <point x="864" y="703" type="line"/>
      <point x="882" y="686"/>
      <point x="1081" y="280"/>
      <point x="1081" y="280" type="curve"/>
      <point x="1226" y="280" type="line"/>
      <point x="1226" y="280"/>
      <point x="1024" y="680"/>
      <point x="992" y="721" type="curve"/>
      <point x="1129" y="743"/>
      <point x="1188" y="830"/>
      <point x="1188" y="967" type="curve" smooth="yes"/>
      <point x="1188" y="1141"/>
      <point x="1086" y="1215"/>
      <point x="863" y="1215" type="curve" smooth="yes"/>
    </contour>
    <contour>
      <point x="996" y="1102"/>
      <point x="1060" y="1087"/>
      <point x="1060" y="963" type="curve" smooth="yes"/>
      <point x="1060" y="852"/>
      <point x="1005" y="817"/>
      <point x="865" y="817" type="curve" smooth="yes"/>
      <point x="675" y="817" type="line"/>
      <point x="675" y="1102" type="line"/>
      <point x="838" y="1102" type="line" smooth="yes"/>
    </contour>
  </outline>
</glyph>
<glyph name="macron" format="1">
  <advance width="965.800"/>
  <unicode hex="00AF"/>
  <outline>
    <contour>
      <point x="165" y="1265" type="line"/>
      <point x="785" y="1265" type="line"/>
      <point x="785" y="1402" type="line"/>
      <point x="165" y="1402" type="line"/>
    </contour>
    <contour>
      <point x="470" y="1327" type="move" name="_mid"/>
    </contour>
    <contour>
      <point x="483" y="1062" type="move" name="_top"/>
    </contour>
  </outline>
</glyph>
<glyph name="degree" format="1">
  <advance width="787.700"/>
  <unicode hex="00B0"/>
  <outline>
    <contour>
      <point x="223" y="1461"/>
      <point x="92" y="1339"/>
      <point x="92" y="1176" type="curve" smooth="yes"/>
      <point x="92" y="1012"/>
      <point x="222" y="886"/>
      <point x="393" y="886" type="curve" smooth="yes"/>
      <point x="568" y="886"/>
      <point x="695" y="1017"/>
      <point x="695" y="1176" type="curve" smooth="yes"/>
      <point x="695" y="1339"/>
      <point x="564" y="1461"/>
      <point x="393" y="1461" type="curve" smooth="yes"/>
    </contour>
    <contour>
      <point x="488" y="1350"/>
      <point x="568" y="1282"/>
      <point x="568" y="1175" type="curve" smooth="yes"/>
      <point x="568" y="1068"/>
      <point x="489" y="997"/>
      <point x="394" y="997" type="curve" smooth="yes"/>
      <point x="299" y="997"/>
      <point x="219" y="1067"/>
      <point x="219" y="1175" type="curve" smooth="yes"/>
      <point x="219" y="1282"/>
      <point x="300" y="1350"/>
      <point x="394" y="1350" type="curve" smooth="yes"/>
    </contour>
  </outline>
</glyph>
<glyph name="plusminus" format="1">
  <advance width="1146.300"/>
  <unicode hex="00B1"/>
  <outline>
    <contour>
      <point x="491" y="1113" type="line"/>
      <point x="491" y="748" type="line"/>
      <point x="126" y="748" type="line"/>
      <point x="126" y="598" type="line"/>
      <point x="491" y="598" type="line"/>
      <point x="491" y="223" type="line"/>
      <point x="644" y="223" type="line"/>
      <point x="644" y="598" type="line"/>
      <point x="1004" y="598" type="line"/>
      <point x="1004" y="748" type="line"/>
      <point x="644" y="748" type="line"/>
      <point x="644" y="1113" type="line"/>
    </contour>
    <contour>
      <point x="112" y="141" type="line"/>
      <point x="112" y="0" type="line"/>
      <point x="1033" y="0" type="line"/>
      <point x="1033" y="141" type="line"/>
    </contour>
  </outline>
</glyph>
<glyph name="threesuperior" format="1">
  <advance width="766.100"/>
  <unicode hex="00B3"/>
  <outline>
    <contour>
      <point x="308" y="1453"/>
      <point x="205" y="1419"/>
      <point x="146" y="1362" type="curve"/>
      <point x="198" y="1263" type="line"/>
      <point x="238" y="1298"/>
      <point x="325" y="1328"/>
      <point x="392" y="1328" type="curve" smooth="yes"/>
      <point x="461" y="1328"/>
      <point x="504" y="1289"/>
      <point x="504" y="1219" type="curve" smooth="yes"/>
      <point x="504" y="1146"/>
      <point x="443" y="1107"/>
      <point x="342" y="1107" type="curve" smooth="yes"/>
      <point x="266" y="1107" type="line"/>
      <point x="266" y="982" type="line"/>
      <point x="343" y="982" type="line"/>
      <point x="451" y="982"/>
      <point x="527" y="938"/>
      <point x="527" y="851" type="curve" smooth="yes"/>
      <point x="527" y="760"/>
      <point x="469" y="716"/>
      <point x="391" y="716" type="curve" smooth="yes"/>
      <point x="330" y="716"/>
      <point x="241" y="743"/>
      <point x="194" y="785" type="curve"/>
      <point x="143" y="675" type="line"/>
      <point x="207" y="618"/>
      <point x="314" y="591"/>
      <point x="397" y="591" type="curve" smooth="yes"/>
      <point x="546" y="591"/>
      <point x="670" y="685"/>
      <point x="670" y="849" type="curve" smooth="yes"/>
      <point x="670" y="943"/>
      <point x="611" y="1018"/>
      <point x="521" y="1051" type="curve"/>
      <point x="611" y="1078"/>
      <point x="650" y="1147"/>
      <point x="651" y="1220" type="curve"/>
      <point x="651" y="1379"/>
      <point x="528" y="1453"/>
      <point x="398" y="1453" type="curve" smooth="yes"/>
    </contour>
  </outline>
</glyph>
<glyph name="acute" format="1">
  <advance width="591.400"/>
  <unicode hex="00B4"/>
  <outline>
    <contour>
      <point x="130" y="1184" type="line"/>
      <point x="251" y="1184" type="line"/>
      <point x="542" y="1560" type="line"/>
      <point x="309" y="1560" type="line"/>
    </contour>
    <contour>
      <point x="216" y="1082" type="move" name="_top"/>
    </contour>
  </outline>
</glyph>
<glyph name="paragraph" format="1">
  <advance width="1077.850"/>
  <unicode hex="00B6"/>
  <outline>
    <contour>
      <point x="528" y="1484" type="line" smooth="yes"/>
      <point x="224" y="1484"/>
      <point x="90" y="1347"/>
      <point x="90" y="1157" type="curve" smooth="yes"/>
      <point x="90" y="981"/>
      <point x="204" y="835"/>
      <point x="453" y="835" type="curve"/>
      <point x="453" y="-73" type="line"/>
      <point x="589" y="-73" type="line"/>
      <point x="589" y="1348" type="line"/>
      <point x="765" y="1348" type="line"/>
      <point x="765" y="-73" type="line"/>
      <point x="902" y="-73" type="line"/>
      <point x="902" y="1348" type="line"/>
      <point x="976" y="1348" type="line"/>
      <point x="976" y="1484" type="line"/>
    </contour>
  </outline>
</glyph>
<glyph name="periodcentered" format="1">
  <advance width="398"/>
  <unicode hex="00B7"/>
  <outline>
    <contour>
      <point x="196" y="547" type="line"/>
      <point x="360" y="547" type="line"/>
      <point x="360" y="707" type="line"/>
      <point x="196" y="707" type="line"/>
    </contour>
    <contour>
      <point x="0" y="631" type="move" name="_mid"/>
    </contour>
  </outline>
</glyph>
<glyph name="cedilla" format="1">
  <advance width="553.600"/>
  <unicode hex="00B8"/>
  <outline>
    <contour>
      <point x="183" y="-387" type="curve" smooth="yes"/>
      <point x="328" y="-387"/>
      <point x="431" y="-312"/>
      <point x="431" y="-199" type="curve" smooth="yes"/>
      <point x="431" y="-56"/>
      <point x="284" y="-16"/>
      <point x="167" y="-60" type="curve"/>
      <point x="167" y="-134" type="line"/>
      <point x="247" y="-125"/>
      <point x="296" y="-151"/>
      <point x="291" y="-207" type="curve" smooth="yes"/>
      <point x="284" y="-282"/>
      <point x="192" y="-311"/>
      <point x="66" y="-264" type="curve"/>
      <point x="36" y="-356" type="line"/>
      <point x="79" y="-376"/>
      <point x="128" y="-387"/>
    </contour>
    <contour>
      <point x="266" y="0" type="move" name="_bot"/>
    </contour>
  </outline>
</glyph>
<glyph name="onesuperior" format="1">
  <advance width="749.950"/>
  <unicode hex="00B9"/>
  <outline>
    <contour>
      <point x="174" y="624" type="line"/>
      <point x="659" y="624" type="line"/>
      <point x="659" y="760" type="line"/>
      <point x="506" y="760" type="line"/>
      <point x="506" y="1453" type="line"/>
      <point x="369" y="1454" type="line"/>
      <point x="351" y="1436"/>
      <point x="187" y="1356"/>
      <point x="165" y="1351" type="curve"/>
      <point x="165" y="1204" type="line"/>
      <point x="190" y="1210"/>
      <point x="298" y="1256"/>
      <point x="334" y="1276" type="curve"/>
      <point x="334" y="760" type="line"/>
      <point x="174" y="760" type="line"/>
    </contour>
  </outline>
</glyph>
<glyph name="guillemotright" format="1">
  <advance width="1002.050"/>
  <unicode hex="00BB"/>
  <outline>
    <contour>
      <point x="264" y="140" type="line"/>
      <point x="558" y="544" type="line"/>
      <point x="266" y="944" type="line"/>
      <point x="116" y="905" type="line"/>
      <point x="374" y="541" type="line"/>
      <point x="111" y="180" type="line"/>
    </contour>
    <contour>
      <point x="630" y="140" type="line"/>
      <point x="925" y="544" type="line"/>
      <point x="633" y="944" type="line"/>
      <point x="484" y="905" type="line"/>
      <point x="740" y="541" type="line"/>
      <point x="479" y="180" type="line"/>
    </contour>
  </outline>
</glyph>
<glyph name="onequarter" format="1">
  <advance width="1563.700"/>
  <unicode hex="00BC"/>
  <outline>
    <contour>
      <point x="79" y="599" type="line"/>
      <point x="521" y="599" type="line"/>
      <point x="521" y="726" type="line"/>
      <point x="385" y="726" type="line"/>
      <point x="385" y="1458" type="line"/>
      <point x="262" y="1459" type="line"/>
      <point x="244" y="1441"/>
      <point x="90" y="1363"/>
      <point x="67" y="1355" type="curve"/>
      <point x="67" y="1226" type="line"/>
      <point x="89" y="1234"/>
      <point x="190" y="1278"/>
      <point x="227" y="1298" type="curve"/>
      <point x="227" y="726" type="line"/>
      <point x="79" y="726" type="line"/>
    </contour>
    <contour>
      <point x="1298" y="5" type="line"/>
      <point x="1437" y="5" type="line"/>
      <point x="1437" y="181" type="line"/>
      <point x="1556" y="181" type="line"/>
      <point x="1549" y="300" type="line"/>
      <point x="1439" y="300" type="line"/>
      <point x="1439" y="838" type="line"/>
      <point x="1288" y="838" type="line"/>
      <point x="921" y="294" type="line"/>
      <point x="921" y="181" type="line"/>
      <point x="1298" y="181" type="line"/>
    </contour>
    <contour>
      <point x="301" y="0" type="line"/>
      <point x="462" y="0" type="line"/>
      <point x="1386" y="1456" type="line"/>
      <point x="1229" y="1456" type="line"/>
    </contour>
    <contour>
      <point x="1091" y="300" type="line"/>
      <point x="1297" y="630" type="line"/>
      <point x="1297" y="300" type="line"/>
    </contour>
  </outline>
</glyph>
<glyph name="onehalf" format="1">
  <advance width="1626.750"/>
  <unicode hex="00BD"/>
  <outline>
    <contour>
      <point x="1214" y="1456" type="line"/>
      <point x="286" y="11" type="line"/>
      <point x="448" y="11" type="line"/>
      <point x="1374" y="1456" type="line"/>
    </contour>
    <contour>
      <point x="244" y="1441"/>
      <point x="125" y="1369"/>
      <point x="98" y="1356" type="curve"/>
      <point x="98" y="1223" type="line"/>
      <point x="117" y="1232"/>
      <point x="203" y="1280"/>
      <point x="239" y="1302" type="curve"/>
      <point x="239" y="726" type="line"/>
      <point x="114" y="726" type="line"/>
      <point x="114" y="604" type="line"/>
      <point x="524" y="604" type="line"/>
      <point x="524" y="726" type="line"/>
      <point x="398" y="726" type="line"/>
      <point x="398" y="1458" type="line"/>
      <point x="261" y="1459" type="line"/>
    </contour>
    <contour>
      <point x="1176" y="830"/>
      <point x="1064" y="778"/>
      <point x="1009" y="688" type="curve"/>
      <point x="1083" y="594" type="line" smooth="yes"/>
      <point x="1135" y="665"/>
      <point x="1214" y="697"/>
      <point x="1287" y="697" type="curve" smooth="yes"/>
      <point x="1355" y="697"/>
      <point x="1419" y="653"/>
      <point x="1419" y="566" type="curve" smooth="yes"/>
      <point x="1419" y="441"/>
      <point x="1135" y="214"/>
      <point x="1027" y="106" type="curve"/>
      <point x="1026" y="-15" type="line"/>
      <point x="1553" y="-15" type="line"/>
      <point x="1563" y="109" type="line"/>
      <point x="1233" y="109" type="line"/>
      <point x="1422" y="274"/>
      <point x="1569" y="388"/>
      <point x="1569" y="573" type="curve" smooth="yes"/>
      <point x="1569" y="739"/>
      <point x="1433" y="830"/>
      <point x="1293" y="830" type="curve" smooth="yes"/>
    </contour>
  </outline>
</glyph>
<glyph name="threequarters" format="1">
  <advance width="1567.950"/>
  <unicode hex="00BE"/>
  <outline>
    <contour>
      <point x="1232" y="1456" type="line"/>
      <point x="306" y="11" type="line"/>
      <point x="468" y="11" type="line"/>
      <point x="1391" y="1456" type="line"/>
    </contour>
    <contour>
      <point x="242" y="1453"/>
      <point x="132" y="1419"/>
      <point x="72" y="1360" type="curve"/>
      <point x="132" y="1263" type="line"/>
      <point x="172" y="1298"/>
      <point x="258" y="1326"/>
      <point x="324" y="1326" type="curve" smooth="yes"/>
      <point x="394" y="1326"/>
      <point x="438" y="1290"/>
      <point x="438" y="1222" type="curve" smooth="yes"/>
      <point x="438" y="1152"/>
      <point x="377" y="1113"/>
      <point x="276" y="1113" type="curve" smooth="yes"/>
      <point x="200" y="1113" type="line"/>
      <point x="200" y="987" type="line"/>
      <point x="277" y="987" type="line"/>
      <point x="386" y="987"/>
      <point x="458" y="947"/>
      <point x="458" y="864" type="curve" smooth="yes"/>
      <point x="458" y="775"/>
      <point x="400" y="733"/>
      <point x="322" y="733" type="curve" smooth="yes"/>
      <point x="261" y="733"/>
      <point x="176" y="757"/>
      <point x="130" y="797" type="curve"/>
      <point x="77" y="690" type="line"/>
      <point x="141" y="632"/>
      <point x="249" y="606"/>
      <point x="332" y="606" type="curve" smooth="yes"/>
      <point x="479" y="606"/>
      <point x="606" y="698"/>
      <point x="606" y="860" type="curve" smooth="yes"/>
      <point x="606" y="953"/>
      <point x="550" y="1027"/>
      <point x="460" y="1059" type="curve"/>
      <point x="559" y="1091"/>
      <point x="587" y="1179"/>
      <point x="587" y="1226" type="curve" smooth="yes"/>
      <point x="587" y="1380"/>
      <point x="461" y="1453"/>
      <point x="333" y="1453" type="curve" smooth="yes"/>
    </contour>
    <contour>
      <point x="1269" y="310" type="line"/>
      <point x="1063" y="310" type="line"/>
      <point x="1269" y="639" type="line"/>
    </contour>
    <contour>
      <point x="1260" y="851" type="line"/>
      <point x="894" y="301" type="line"/>
      <point x="894" y="192" type="line"/>
      <point x="1270" y="192" type="line"/>
      <point x="1270" y="11" type="line"/>
      <point x="1409" y="11" type="line"/>
      <point x="1410" y="192" type="line"/>
      <point x="1528" y="192" type="line"/>
      <point x="1522" y="310" type="line"/>
      <point x="1411" y="310" type="line"/>
      <point x="1411" y="851" type="line"/>
    </contour>
  </outline>
</glyph>
<glyph name="AE" format="1">
  <advance width="2599"/>
  <unicode hex="00C6"/>
  <outline>
    <component base="A"/>
    <component base="E" xOffset="1397"/>
    <contour>
      <point x="250" y="1433" type="move" name="top"/>
    </contour>
  </outline>
</glyph>
<glyph name="multiply" format="1">
  <advance width="1008.250"/>
  <unicode hex="00D7"/>
  <outline>
    <contour>
      <point x="135" y="852" type="line"/>
      <point x="400" y="570" type="line"/>
      <point x="129" y="285" type="line"/>
      <point x="232" y="178" type="line"/>
      <point x="506" y="461" type="line"/>
      <point x="778" y="179" type="line"/>
      <point x="880" y="287" type="line"/>
      <point x="880" y="287"/>
      <point x="649" y="533"/>
      <point x="611" y="570" type="curve"/>
      <point x="878" y="849" type="line"/>
      <point x="771" y="956" type="line"/>
      <point x="506" y="679" type="line"/>
      <point x="238" y="959" type="line"/>
    </contour>
  </outline>
</glyph>
<glyph name="Oslash" format="1">
  <advance width="1601.600"/>
  <unicode hex="00D8"/>
  <outline>
    <contour>
      <point x="417" y="-194" type="line"/>
      <point x="526" y="-232" type="line"/>
      <point x="1247" y="1611" type="line"/>
      <point x="1132" y="1654" type="line"/>
    </contour>
    <component base="O"/>
    <contour>
      <point x="801" y="1433" type="move" name="top"/>
    </contour>
  </outline>
</glyph>
<glyph name="Thorn" format="1">
  <advance width="1293"/>
  <unicode hex="00DE"/>
  <outline>
    <contour>
      <point x="197" y="1456" type="line"/>
      <point x="197" y="0" type="line"/>
      <point x="418" y="0" type="line"/>
      <point x="418" y="473" type="line"/>
      <point x="355" y="409" type="line"/>
      <point x="710" y="409" type="line" smooth="yes"/>
      <point x="1073" y="409"/>
      <point x="1210" y="562"/>
      <point x="1210" y="816" type="curve" smooth="yes"/>
      <point x="1210" y="1092"/>
      <point x="999" y="1180"/>
      <point x="712" y="1180" type="curve" smooth="yes"/>
      <point x="418" y="1180" type="line"/>
      <point x="418" y="1456" type="line"/>
    </contour>
    <contour>
      <point x="356" y="1016" type="line"/>
      <point x="712" y="1016" type="line" smooth="yes"/>
      <point x="888" y="1016"/>
      <point x="989" y="966"/>
      <point x="989" y="811" type="curve" smooth="yes"/>
      <point x="989" y="644"/>
      <point x="918" y="577"/>
      <point x="698" y="577" type="curve" smooth="yes"/>
      <point x="356" y="577" type="line"/>
      <point x="418" y="520" type="line"/>
      <point x="418" y="1076" type="line"/>
    </contour>
  </outline>
</glyph>
<glyph name="germandbls" format="1">
  <advance width="1170.100"/>
  <unicode hex="00DF"/>
  <outline>
    <contour>
      <point x="817" y="-21" type="curve" smooth="yes"/>
      <point x="1024" y="-21"/>
      <point x="1153" y="99"/>
      <point x="1153" y="293" type="curve" smooth="yes"/>
      <point x="1153" y="588"/>
      <point x="786" y="647"/>
      <point x="786" y="756" type="curve" smooth="yes"/>
      <point x="786" y="839"/>
      <point x="982" y="924"/>
      <point x="982" y="1145" type="curve" smooth="yes"/>
      <point x="982" y="1345"/>
      <point x="818" y="1459"/>
      <point x="593" y="1459" type="curve" smooth="yes"/>
      <point x="298" y="1459"/>
      <point x="163" y="1287"/>
      <point x="163" y="1002" type="curve" smooth="yes"/>
      <point x="163" y="0" type="line"/>
      <point x="361" y="0" type="line"/>
      <point x="361" y="1003" type="line" smooth="yes"/>
      <point x="361" y="1214"/>
      <point x="425" y="1309"/>
      <point x="602" y="1309" type="curve" smooth="yes"/>
      <point x="728" y="1309"/>
      <point x="797" y="1240"/>
      <point x="796" y="1141" type="curve" smooth="yes"/>
      <point x="796" y="954"/>
      <point x="597" y="900"/>
      <point x="597" y="736" type="curve" smooth="yes"/>
      <point x="597" y="547"/>
      <point x="955" y="492"/>
      <point x="955" y="294" type="curve" smooth="yes"/>
      <point x="955" y="200"/>
      <point x="896" y="136"/>
      <point x="786" y="136" type="curve" smooth="yes"/>
      <point x="687" y="136"/>
      <point x="592" y="171"/>
      <point x="541" y="197" type="curve"/>
      <point x="491" y="53" type="line"/>
      <point x="583" y="11"/>
      <point x="703" y="-21"/>
    </contour>
  </outline>
</glyph>
<glyph name="ae" format="1">
  <advance width="1686.650"/>
  <unicode hex="00E6"/>
  <outline>
    <contour>
      <point x="405" y="1089"/>
      <point x="237" y="1046"/>
      <point x="146" y="995" type="curve"/>
      <point x="203" y="860" type="line"/>
      <point x="281" y="897"/>
      <point x="426" y="940"/>
      <point x="539" y="940" type="curve"/>
      <point x="694" y="936"/>
      <point x="747" y="862"/>
      <point x="747" y="722" type="curve" smooth="yes"/>
      <point x="747" y="612" type="line"/>
      <point x="606" y="612" type="line" smooth="yes"/>
      <point x="281" y="612"/>
      <point x="101" y="531"/>
      <point x="101" y="305" type="curve" smooth="yes"/>
      <point x="101" y="101"/>
      <point x="237" y="-17"/>
      <point x="424" y="-17" type="curve" smooth="yes"/>
      <point x="598" y="-17"/>
      <point x="781" y="57"/>
      <point x="868" y="149" type="curve"/>
      <point x="945" y="42"/>
      <point x="1057" y="-19"/>
      <point x="1226" y="-19" type="curve" smooth="yes"/>
      <point x="1389" y="-19"/>
      <point x="1494" y="18"/>
      <point x="1586" y="82" type="curve"/>
      <point x="1528" y="211" type="line"/>
      <point x="1440" y="162"/>
      <point x="1354" y="131"/>
      <point x="1243" y="131" type="curve"/>
      <point x="1057" y="132"/>
      <point x="947" y="230"/>
      <point x="937" y="478" type="curve"/>
      <point x="1472" y="478"/>
      <point x="1609" y="591"/>
      <point x="1609" y="773" type="curve" smooth="yes"/>
      <point x="1609" y="928"/>
      <point x="1505" y="1089"/>
      <point x="1232" y="1089" type="curve" smooth="yes"/>
      <point x="1078" y="1089"/>
      <point x="924" y="1008"/>
      <point x="871" y="878" type="curve"/>
      <point x="842" y="1026"/>
      <point x="718" y="1089"/>
      <point x="549" y="1089" type="curve" smooth="yes"/>
    </contour>
    <contour>
      <point x="752" y="406"/>
      <point x="771" y="316"/>
      <point x="792" y="266" type="curve"/>
      <point x="707" y="185"/>
      <point x="562" y="127"/>
      <point x="451" y="127" type="curve" smooth="yes"/>
      <point x="349" y="127"/>
      <point x="286" y="181"/>
      <point x="286" y="301" type="curve" smooth="yes"/>
      <point x="286" y="417"/>
      <point x="359" y="479"/>
      <point x="606" y="479" type="curve" smooth="yes"/>
      <point x="750" y="479" type="line"/>
    </contour>
    <contour>
      <point x="1381" y="951"/>
      <point x="1452" y="879"/>
      <point x="1452" y="778" type="curve" smooth="yes"/>
      <point x="1452" y="658"/>
      <point x="1315" y="610"/>
      <point x="939" y="610" type="curve"/>
      <point x="962" y="845"/>
      <point x="1092" y="951"/>
      <point x="1246" y="951" type="curve" smooth="yes"/>
    </contour>
    <contour>
      <point x="914" y="1082" type="move" name="top"/>
    </contour>
  </outline>
</glyph>
<glyph name="eth" format="1">
  <advance width="1183.900"/>
  <unicode hex="00F0"/>
  <outline>
    <contour>
      <point x="213" y="1498" type="line"/>
      <point x="422" y="1301" type="line"/>
      <point x="219" y="1222" type="line"/>
      <point x="272" y="1090" type="line"/>
      <point x="520" y="1186" type="line"/>
      <point x="649" y="1060"/>
      <point x="749" y="937"/>
      <point x="798" y="856" type="curve"/>
      <point x="746" y="889"/>
      <point x="682" y="931"/>
      <point x="574" y="931" type="curve" smooth="yes"/>
      <point x="294" y="931"/>
      <point x="98" y="745"/>
      <point x="98" y="466" type="curve" smooth="yes"/>
      <point x="98" y="198"/>
      <point x="282" y="-23"/>
      <point x="599" y="-23" type="curve" smooth="yes"/>
      <point x="923" y="-23"/>
      <point x="1099" y="178"/>
      <point x="1099" y="464" type="curve"/>
      <point x="1098" y="600"/>
      <point x="1063" y="733"/>
      <point x="1009" y="831" type="curve"/>
      <point x="939" y="957"/>
      <point x="838" y="1079"/>
      <point x="677" y="1252" type="curve"/>
      <point x="910" y="1341" type="line"/>
      <point x="855" y="1473" type="line"/>
      <point x="578" y="1365" type="line"/>
      <point x="441" y="1498" type="line"/>
    </contour>
    <contour>
      <point x="920" y="470" type="curve" smooth="yes"/>
      <point x="920" y="265"/>
      <point x="812" y="130"/>
      <point x="606" y="130" type="curve" smooth="yes"/>
      <point x="396" y="130"/>
      <point x="288" y="288"/>
      <point x="288" y="465" type="curve" smooth="yes"/>
      <point x="288" y="654"/>
      <point x="402" y="789"/>
      <point x="600" y="789" type="curve" smooth="yes"/>
      <point x="806" y="789"/>
      <point x="920" y="642"/>
    </contour>
  </outline>
</glyph>
<glyph name="divide" format="1">
  <advance width="1184.900"/>
  <unicode hex="00F7"/>
  <outline>
    <contour>
      <point x="97" y="642" type="line"/>
      <point x="97" y="484" type="line"/>
      <point x="1078" y="484" type="line"/>
      <point x="1078" y="642" type="line"/>
    </contour>
    <contour>
      <point x="479" y="254" type="line"/>
      <point x="479" y="27" type="line"/>
      <point x="699" y="27" type="line"/>
      <point x="699" y="254" type="line"/>
    </contour>
    <contour>
      <point x="479" y="1079" type="line"/>
      <point x="479" y="859" type="line"/>
      <point x="703" y="859" type="line"/>
      <point x="703" y="1079" type="line"/>
    </contour>
  </outline>
</glyph>
<glyph name="oslash" format="1">
  <advance width="1186"/>
  <unicode hex="00F8"/>
  <outline>
    <contour>
      <point x="224" y="-109" type="line"/>
      <point x="292" y="-149" type="line"/>
      <point x="1013" y="1173" type="line"/>
      <point x="939" y="1214" type="line"/>
    </contour>
    <component base="o"/>
  </outline>
</glyph>
<glyph name="thorn" format="1">
  <advance width="1244"/>
  <unicode hex="00FE"/>
  <outline>
    <contour>
      <point x="165" y="527" type="line"/>
      <point x="165" y="-384" type="line"/>
      <point x="365" y="-384" type="line"/>
      <point x="365" y="527" type="line"/>
    </contour>
    <component base="b"/>
  </outline>
</glyph>
<glyph name="Hbar" format="1">
  <advance width="1476.150"/>
  <unicode hex="0126"/>
  <outline>
    <contour>
      <point x="1135" y="1434" type="line"/>
      <point x="1135" y="1223" type="line"/>
      <point x="380" y="1223" type="line"/>
      <point x="380" y="1434" type="line"/>
      <point x="190" y="1434" type="line"/>
      <point x="190" y="1223" type="line"/>
      <point x="104" y="1223" type="line"/>
      <point x="104" y="1111" type="line"/>
      <point x="190" y="1111" type="line"/>
      <point x="190" y="0" type="line"/>
      <point x="380" y="0" type="line"/>
      <point x="380" y="661" type="line"/>
      <point x="1135" y="661" type="line"/>
      <point x="1135" y="0" type="line"/>
      <point x="1327" y="0" type="line"/>
      <point x="1327" y="1111" type="line"/>
      <point x="1413" y="1111" type="line"/>
      <point x="1413" y="1223" type="line"/>
      <point x="1327" y="1223" type="line"/>
      <point x="1327" y="1434" type="line"/>
    </contour>
    <contour>
      <point x="1135" y="821" type="line"/>
      <point x="380" y="821" type="line"/>
      <point x="380" y="1111" type="line"/>
      <point x="1135" y="1111" type="line"/>
    </contour>
  </outline>
</glyph>
<glyph name="hbar" format="1">
  <advance width="1148.650"/>
  <unicode hex="0127"/>
  <outline>
    <contour>
      <point x="183" y="1439" type="line"/>
      <point x="183" y="1332" type="line"/>
      <point x="93" y="1332" type="line"/>
      <point x="93" y="1212" type="line"/>
      <point x="183" y="1212" type="line"/>
      <point x="183" y="0" type="line"/>
      <point x="366" y="0" type="line"/>
      <point x="366" y="722" type="line"/>
      <point x="396" y="820"/>
      <point x="522" y="932"/>
      <point x="677" y="932" type="curve" smooth="yes"/>
      <point x="847" y="932"/>
      <point x="878" y="829"/>
      <point x="878" y="605" type="curve" smooth="yes"/>
      <point x="878" y="0" type="line"/>
      <point x="1060" y="0" type="line"/>
      <point x="1060" y="643" type="line" smooth="yes"/>
      <point x="1060" y="932"/>
      <point x="949" y="1086"/>
      <point x="732" y="1086" type="curve" smooth="yes"/>
      <point x="577" y="1086"/>
      <point x="454" y="1030"/>
      <point x="366" y="929" type="curve"/>
      <point x="366" y="1212" type="line"/>
      <point x="633" y="1212" type="line"/>
      <point x="633" y="1332" type="line"/>
      <point x="366" y="1332" type="line"/>
      <point x="366" y="1458" type="line"/>
    </contour>
  </outline>
</glyph>
<glyph name="dotlessi" format="1">
  <advance width="461.150"/>
  <unicode hex="0131"/>
  <outline>
    <contour>
      <point x="149" y="1082" type="line"/>
      <point x="149" y="0" type="line"/>
      <point x="338" y="0" type="line"/>
      <point x="338" y="1082" type="line"/>
    </contour>
    <contour>
      <point x="247" y="1082" type="move" name="top"/>
    </contour>
    <contour>
      <point x="274" y="0" type="move" name="ogonek"/>
    </contour>
  </outline>
</glyph>
<glyph name="kgreenlandic" format="1">
  <advance width="1131"/>
  <unicode hex="0138"/>
  <outline>
    <contour>
      <point x="165" y="1082" type="line"/>
      <point x="165" y="0" type="line"/>
      <point x="368" y="0" type="line"/>
      <point x="368" y="453" type="line"/>
      <point x="317" y="348" type="line"/>
      <point x="516" y="532" type="line"/>
      <point x="447" y="532" type="line"/>
      <point x="867" y="0" type="line"/>
      <point x="1106" y="0" type="line"/>
      <point x="594" y="643" type="line"/>
      <point x="594" y="551" type="line"/>
      <point x="1089" y="1082" type="line"/>
      <point x="839" y="1082" type="line"/>
      <point x="321" y="535" type="line"/>
      <point x="361" y="535" type="line"/>
      <point x="368" y="790" type="line"/>
      <point x="368" y="1082" type="line"/>
    </contour>
  </outline>
</glyph>
<glyph name="Eng" format="1">
  <advance width="1586"/>
  <unicode hex="014A"/>
  <outline>
    <contour>
      <point x="1177" y="88" type="line"/>
      <point x="1177" y="-39" type="line" smooth="yes"/>
      <point x="1177" y="-280"/>
      <point x="1168" y="-348"/>
      <point x="921" y="-348" type="curve"/>
      <point x="944" y="-517" type="line"/>
      <point x="1295" y="-517"/>
      <point x="1388" y="-383"/>
      <point x="1388" y="-43" type="curve" smooth="yes"/>
      <point x="1388" y="88" type="line"/>
    </contour>
    <component base="N"/>
  </outline>
</glyph>
<glyph name="eng" format="1">
  <advance width="1119.750"/>
  <unicode hex="014B"/>
  <outline>
    <contour>
      <point x="530" y="1085"/>
      <point x="422" y="1024"/>
      <point x="343" y="918" type="curve"/>
      <point x="322" y="1062" type="line"/>
      <point x="152" y="1062" type="line"/>
      <point x="152" y="0" type="line"/>
      <point x="355" y="0" type="line"/>
      <point x="355" y="566" type="line" smooth="yes"/>
      <point x="355" y="629"/>
      <point x="358" y="685"/>
      <point x="366" y="734" type="curve"/>
      <point x="399" y="846"/>
      <point x="481" y="930"/>
      <point x="638" y="930" type="curve" smooth="yes"/>
      <point x="795" y="930"/>
      <point x="831" y="827"/>
      <point x="831" y="657" type="curve"/>
      <point x="831" y="90" type="line" smooth="yes"/>
      <point x="831" y="-108"/>
      <point x="815" y="-139"/>
      <point x="653" y="-139" type="curve" smooth="yes"/>
      <point x="608" y="-139" type="line"/>
      <point x="622" y="-306" type="line"/>
      <point x="689" y="-306" type="line" smooth="yes"/>
      <point x="985" y="-306"/>
      <point x="1034" y="-155"/>
      <point x="1034" y="141" type="curve"/>
      <point x="1034" y="656" type="line" smooth="yes"/>
      <point x="1034" y="936"/>
      <point x="926" y="1085"/>
      <point x="681" y="1085" type="curve" smooth="yes"/>
    </contour>
  </outline>
</glyph>
<glyph name="dotlessj" format="1">
  <advance width="493.600"/>
  <unicode hex="0237"/>
  <outline>
    <contour>
      <point x="156" y="1082" type="line"/>
      <point x="156" y="-63" type="line" smooth="yes"/>
      <point x="155" y="-222"/>
      <point x="166" y="-273"/>
      <point x="-4" y="-273" type="curve" smooth="yes"/>
      <point x="-65" y="-273" type="line"/>
      <point x="-33" y="-434" type="line"/>
      <point x="26" y="-434" type="line" smooth="yes"/>
      <point x="309" y="-434"/>
      <point x="366" y="-329"/>
      <point x="366" y="-62" type="curve" smooth="yes"/>
      <point x="366" y="1082" type="line"/>
    </contour>
    <contour>
      <point x="269" y="1082" type="move" name="top"/>
    </contour>
  </outline>
</glyph>
<glyph name="apostrophemod" format="1">
  <advance width="448.750"/>
  <unicode hex="02BC"/>
  <outline>
    <contour>
      <point x="192" y="1497" type="line"/>
      <point x="122" y="1029" type="line"/>
      <point x="242" y="1029" type="line"/>
      <point x="356" y="1497" type="line"/>
    </contour>
  </outline>
</glyph>
<glyph name="circumflex" format="1">
  <advance width="741.650"/>
  <unicode hex="02C6"/>
  <outline>
    <contour>
      <point x="66" y="1181" type="line"/>
      <point x="206" y="1181" type="line"/>
      <point x="360" y="1430" type="line"/>
      <point x="518" y="1181" type="line"/>
      <point x="660" y="1181" type="line"/>
      <point x="464" y="1559" type="line"/>
      <point x="270" y="1559" type="line"/>
    </contour>
    <contour>
      <point x="365" y="1082" type="move" name="_top"/>
    </contour>
  </outline>
</glyph>
<glyph name="caron" format="1">
  <advance width="740.550"/>
  <unicode hex="02C7"/>
  <outline>
    <contour>
      <point x="264" y="1199" type="line"/>
      <point x="454" y="1199" type="line"/>
      <point x="665" y="1559" type="line"/>
      <point x="512" y="1559" type="line"/>
      <point x="353" y="1323" type="line"/>
      <point x="211" y="1559" type="line"/>
      <point x="60" y="1559" type="line"/>
    </contour>
    <contour>
      <point x="368" y="1082" type="move" name="_top"/>
    </contour>
  </outline>
</glyph>
<glyph name="uni02C9" format="1">
  <advance width="600"/>
  <unicode hex="02C9"/>
  <outline>
    <contour>
      <point x="-11" y="1265" type="line"/>
      <point x="609" y="1265" type="line"/>
      <point x="609" y="1402" type="line"/>
      <point x="-11" y="1402" type="line"/>
    </contour>
  </outline>
</glyph>
<glyph name="breve" format="1">
  <advance width="695.900"/>
  <unicode hex="02D8"/>
  <outline>
    <contour>
      <point x="345" y="1235" type="curve" smooth="yes"/>
      <point x="483" y="1235"/>
      <point x="597" y="1307"/>
      <point x="597" y="1476" type="curve"/>
      <point x="469" y="1476" type="line"/>
      <point x="469" y="1391"/>
      <point x="417" y="1357"/>
      <point x="345" y="1357" type="curve" smooth="yes"/>
      <point x="273" y="1357"/>
      <point x="225" y="1391"/>
      <point x="225" y="1476" type="curve"/>
      <point x="96" y="1476" type="line"/>
      <point x="96" y="1307"/>
      <point x="208" y="1235"/>
    </contour>
    <contour>
      <point x="353" y="1082" type="move" name="_top"/>
    </contour>
  </outline>
</glyph>
<glyph name="dotaccent" format="1">
  <advance width="404.250"/>
  <unicode hex="02D9"/>
  <outline>
    <contour>
      <point x="326" y="1393" type="curve" smooth="yes"/>
      <point x="326" y="1470"/>
      <point x="283" y="1519"/>
      <point x="206" y="1519" type="curve" smooth="yes"/>
      <point x="128" y="1519"/>
      <point x="85" y="1470"/>
      <point x="85" y="1393" type="curve" smooth="yes"/>
      <point x="85" y="1315"/>
      <point x="128" y="1266"/>
      <point x="206" y="1266" type="curve" smooth="yes"/>
      <point x="283" y="1266"/>
      <point x="326" y="1315"/>
    </contour>
    <contour>
      <point x="208" y="1082" type="move" name="_top"/>
    </contour>
  </outline>
</glyph>
<glyph name="ring" format="1">
  <advance width="595.500"/>
  <unicode hex="02DA"/>
  <outline>
    <contour>
      <point x="298" y="1265" type="curve" smooth="yes"/>
      <point x="240" y="1265"/>
      <point x="204" y="1310"/>
      <point x="204" y="1365" type="curve" smooth="yes"/>
      <point x="204" y="1418"/>
      <point x="242" y="1464"/>
      <point x="298" y="1464" type="curve" smooth="yes"/>
      <point x="354" y="1464"/>
      <point x="392" y="1418"/>
      <point x="392" y="1365" type="curve" smooth="yes"/>
      <point x="392" y="1311"/>
      <point x="354" y="1265"/>
    </contour>
    <contour>
      <point x="297" y="1179" type="curve" smooth="yes"/>
      <point x="414" y="1179"/>
      <point x="493" y="1264"/>
      <point x="493" y="1366" type="curve" smooth="yes"/>
      <point x="493" y="1467"/>
      <point x="416" y="1552"/>
      <point x="297" y="1552" type="curve" smooth="yes"/>
      <point x="180" y="1552"/>
      <point x="102" y="1468"/>
      <point x="102" y="1366" type="curve" smooth="yes"/>
      <point x="102" y="1264"/>
      <point x="181" y="1179"/>
    </contour>
    <contour>
      <point x="298" y="1062" type="move" name="_top"/>
    </contour>
  </outline>
</glyph>
<glyph name="ogonek" format="1">
  <advance width="546.750"/>
  <unicode hex="02DB"/>
  <outline>
    <contour>
      <point x="304" y="-419" type="curve" smooth="yes"/>
      <point x="358" y="-419"/>
      <point x="421" y="-404"/>
      <point x="462" y="-387" type="curve"/>
      <point x="462" y="-387"/>
      <point x="458" y="-269"/>
      <point x="458" y="-269" type="curve" smooth="yes"/>
      <point x="441" y="-276"/>
      <point x="390" y="-296"/>
      <point x="343" y="-296" type="curve" smooth="yes"/>
      <point x="300" y="-296"/>
      <point x="266" y="-268"/>
      <point x="266" y="-219" type="curve" smooth="yes"/>
      <point x="266" y="-150"/>
      <point x="333" y="-49"/>
      <point x="399" y="0" type="curve"/>
      <point x="307" y="0" type="line"/>
      <point x="214" y="-42"/>
      <point x="110" y="-145"/>
      <point x="110" y="-262" type="curve" smooth="yes"/>
      <point x="110" y="-362"/>
      <point x="185" y="-419"/>
    </contour>
    <contour>
      <point x="365" y="0" type="move" name="_ogonek"/>
    </contour>
  </outline>
</glyph>
<glyph name="tilde" format="1">
  <advance width="808.800"/>
  <unicode hex="02DC"/>
  <outline>
    <contour>
      <point x="96" y="1224" type="curve"/>
      <point x="197" y="1224" type="line"/>
      <point x="208" y="1293"/>
      <point x="233" y="1320"/>
      <point x="267" y="1320" type="curve" smooth="yes"/>
      <point x="336" y="1320"/>
      <point x="447" y="1224"/>
      <point x="553" y="1224" type="curve" smooth="yes"/>
      <point x="656" y="1224"/>
      <point x="710" y="1315"/>
      <point x="710" y="1442" type="curve"/>
      <point x="607" y="1442" type="line"/>
      <point x="597" y="1379"/>
      <point x="577" y="1359"/>
      <point x="548" y="1359" type="curve" smooth="yes"/>
      <point x="488" y="1359"/>
      <point x="392" y="1442"/>
      <point x="269" y="1442" type="curve" smooth="yes"/>
      <point x="153" y="1442"/>
      <point x="96" y="1354"/>
    </contour>
    <contour>
      <point x="404" y="1062" type="move" name="_top"/>
    </contour>
  </outline>
</glyph>
<glyph name="hungarumlaut" format="1">
  <advance width="789.600"/>
  <unicode hex="02DD"/>
  <outline>
    <contour>
      <point x="120" y="1188" type="line"/>
      <point x="228" y="1188" type="line"/>
      <point x="488" y="1520" type="line"/>
      <point x="303" y="1520" type="line"/>
    </contour>
    <contour>
      <point x="374" y="1188" type="line"/>
      <point x="482" y="1188" type="line"/>
      <point x="771" y="1520" type="line"/>
      <point x="579" y="1520" type="line"/>
    </contour>
    <contour>
      <point x="293" y="1082" type="move" name="_top"/>
    </contour>
  </outline>
</glyph>
<glyph name="uni0307" format="1">
  <advance width="379"/>
  <unicode hex="0307"/>
  <outline>
    <contour>
      <point x="111" y="1229" type="line"/>
      <point x="283" y="1229" type="line"/>
      <point x="283" y="1427" type="line"/>
      <point x="111" y="1427" type="line"/>
    </contour>
  </outline>
</glyph>
<glyph name="dblgravecmb" format="1">
  <advance width="695"/>
  <unicode hex="030F"/>
  <outline>
    <contour>
      <point x="311" y="1188" type="line"/>
      <point x="419" y="1188" type="line"/>
      <point x="213" y="1520" type="line"/>
      <point x="22" y="1520" type="line"/>
    </contour>
    <contour>
      <point x="565" y="1188" type="line"/>
      <point x="673" y="1188" type="line"/>
      <point x="490" y="1520" type="line"/>
      <point x="305" y="1520" type="line"/>
    </contour>
    <contour>
      <point x="478" y="1082" type="move" name="_top"/>
    </contour>
  </outline>
</glyph>
<glyph name="breveinvertedcomb" format="1">
  <advance width="663.700"/>
  <unicode hex="0311"/>
  <outline>
    <contour>
      <point x="91" y="1237" type="curve"/>
      <point x="219" y="1237" type="line"/>
      <point x="219" y="1321"/>
      <point x="273" y="1360"/>
      <point x="340" y="1360" type="curve" smooth="yes"/>
      <point x="406" y="1360"/>
      <point x="463" y="1321"/>
      <point x="463" y="1237" type="curve"/>
      <point x="592" y="1237" type="line"/>
      <point x="592" y="1401"/>
      <point x="464" y="1472"/>
      <point x="340" y="1472" type="curve" smooth="yes"/>
      <point x="217" y="1472"/>
      <point x="91" y="1401"/>
    </contour>
    <contour>
      <point x="348" y="1082" type="move" name="_top"/>
    </contour>
  </outline>
</glyph>
<glyph name="commaturnedabovecomb" format="1">
  <advance width="600"/>
  <unicode hex="0312"/>
  <outline>
    <contour>
      <point x="188" y="1246" type="line"/>
      <point x="384" y="1246" type="line"/>
      <point x="384" y="1293"/>
      <point x="443" y="1743"/>
      <point x="443" y="1743" type="curve"/>
      <point x="314" y="1743" type="line"/>
      <point x="314" y="1743"/>
      <point x="192" y="1311"/>
      <point x="192" y="1292" type="curve"/>
    </contour>
    <contour>
      <point x="285" y="1082" type="move" name="_top"/>
    </contour>
  </outline>
</glyph>
<glyph name="commaaccent" format="1">
  <advance width="297"/>
  <unicode hex="0326"/>
  <outline>
    <contour>
      <point x="58" y="-522" type="line"/>
      <point x="204" y="-522" type="line"/>
      <point x="292" y="-154" type="line"/>
      <point x="109" y="-154" type="line"/>
    </contour>
    <contour>
      <point x="163" y="0" type="move" name="_bot"/>
    </contour>
  </outline>
</glyph>
<glyph name="Delta" format="1">
  <advance width="1344.450"/>
  <unicode hex="0394"/>
  <outline>
    <contour>
      <point x="596" y="1445" type="line"/>
      <point x="73" y="0" type="line"/>
      <point x="1309" y="0" type="line"/>
      <point x="785" y="1445" type="line"/>
    </contour>
    <contour>
      <point x="1069" y="161" type="line"/>
      <point x="318" y="161" type="line"/>
      <point x="691" y="1244" type="line"/>
    </contour>
  </outline>
</glyph>
<glyph name="pi" format="1">
  <advance width="1417"/>
  <unicode hex="03C0"/>
  <outline>
    <contour>
      <point x="1120" y="-13" type="curve" smooth="yes"/>
      <point x="1199" y="-13"/>
      <point x="1267" y="11"/>
      <point x="1302" y="45" type="curve"/>
      <point x="1302" y="177" type="line"/>
      <point x="1273" y="166"/>
      <point x="1233" y="155"/>
      <point x="1191" y="155" type="curve" smooth="yes"/>
      <point x="1127" y="155"/>
      <point x="1077" y="194"/>
      <point x="1077" y="309" type="curve" smooth="yes"/>
      <point x="1077" y="419"/>
      <point x="1084" y="689"/>
      <point x="1101" y="892" type="curve"/>
      <point x="1343" y="892" type="line"/>
      <point x="1343" y="1082" type="line"/>
      <point x="431" y="1082" type="line" smooth="yes"/>
      <point x="187" y="1082"/>
      <point x="112" y="979"/>
      <point x="112" y="757" type="curve"/>
      <point x="210" y="757" type="line"/>
      <point x="222" y="835"/>
      <point x="263" y="892"/>
      <point x="345" y="892" type="curve" smooth="yes"/>
      <point x="443" y="892" type="line"/>
      <point x="378" y="399" type="line" smooth="yes"/>
      <point x="349" y="177"/>
      <point x="214" y="115"/>
      <point x="124" y="115" type="curve"/>
      <point x="124" y="4" type="line"/>
      <point x="479" y="4"/>
      <point x="552" y="108"/>
      <point x="562" y="333" type="curve" smooth="yes"/>
      <point x="588" y="892" type="line"/>
      <point x="945" y="892" type="line"/>
      <point x="909" y="678"/>
      <point x="874" y="383"/>
      <point x="874" y="239" type="curve" smooth="yes"/>
      <point x="874" y="54"/>
      <point x="967" y="-13"/>
    </contour>
  </outline>
</glyph>
<glyph name="endash" format="1">
  <advance width="1192.650"/>
  <unicode hex="2013"/>
  <outline>
    <contour>
      <point x="103" y="492" type="line"/>
      <point x="1120" y="492" type="line"/>
      <point x="1120" y="647" type="line"/>
      <point x="103" y="647" type="line"/>
    </contour>
  </outline>
</glyph>
<glyph name="emdash" format="1">
  <advance width="2191.450"/>
  <unicode hex="2014"/>
  <outline>
    <contour>
      <point x="92" y="492" type="line"/>
      <point x="2150" y="492" type="line"/>
      <point x="2150" y="647" type="line"/>
      <point x="92" y="647" type="line"/>
    </contour>
  </outline>
</glyph>
<glyph name="quoteleft" format="1">
  <advance width="435.300"/>
  <unicode hex="2018"/>
  <outline>
    <contour>
      <point x="205" y="1020" type="line"/>
      <point x="346" y="1020" type="line"/>
      <point x="296" y="1433" type="line"/>
      <point x="146" y="1433" type="line"/>
    </contour>
  </outline>
</glyph>
<glyph name="quoteright" format="1">
  <advance width="430.250"/>
  <unicode hex="2019"/>
  <outline>
    <contour>
      <point x="100" y="1020" type="line"/>
      <point x="226" y="1020" type="line"/>
      <point x="360" y="1433" type="line"/>
      <point x="193" y="1433" type="line"/>
    </contour>
  </outline>
</glyph>
<glyph name="quotesinglbase" format="1">
  <advance width="455.150"/>
  <unicode hex="201A"/>
  <outline>
    <contour>
      <point x="98" y="-246" type="line"/>
      <point x="225" y="-246" type="line"/>
      <point x="361" y="216" type="line"/>
      <point x="190" y="216" type="line"/>
    </contour>
  </outline>
</glyph>
<glyph name="quotedblleft" format="1">
  <advance width="721.900"/>
  <unicode hex="201C"/>
  <outline>
    <contour>
      <point x="98" y="1132" type="line"/>
      <point x="253" y="1035" type="line"/>
      <point x="360" y="1406" type="line"/>
      <point x="246" y="1503" type="line"/>
    </contour>
    <contour>
      <point x="394" y="1132" type="line"/>
      <point x="549" y="1035" type="line"/>
      <point x="653" y="1406" type="line"/>
      <point x="541" y="1504" type="line"/>
    </contour>
  </outline>
</glyph>
<glyph name="quotedblright" format="1">
  <advance width="739.300"/>
  <unicode hex="201D"/>
  <outline>
    <contour>
      <point x="88" y="1079" type="line"/>
      <point x="215" y="1079" type="line"/>
      <point x="349" y="1488" type="line"/>
      <point x="182" y="1488" type="line"/>
    </contour>
    <contour>
      <point x="395" y="1081" type="line"/>
      <point x="519" y="1081" type="line"/>
      <point x="656" y="1488" type="line"/>
      <point x="484" y="1488" type="line"/>
    </contour>
  </outline>
</glyph>
<glyph name="quotedblbase" format="1">
  <advance width="769.750"/>
  <unicode hex="201E"/>
  <outline>
    <contour>
      <point x="131" y="-246" type="line"/>
      <point x="258" y="-246" type="line"/>
      <point x="393" y="216" type="line"/>
      <point x="222" y="216" type="line"/>
    </contour>
    <contour>
      <point x="415" y="-246" type="line"/>
      <point x="543" y="-246" type="line"/>
      <point x="680" y="216" type="line"/>
      <point x="508" y="216" type="line"/>
    </contour>
  </outline>
</glyph>
<glyph name="dagger" format="1">
  <advance width="891.550"/>
  <unicode hex="2020"/>
  <outline>
    <contour>
      <point x="383" y="1437" type="line"/>
      <point x="383" y="1083" type="line"/>
      <point x="93" y="1083" type="line"/>
      <point x="93" y="952" type="line"/>
      <point x="383" y="952" type="line"/>
      <point x="383" y="114" type="line"/>
      <point x="522" y="114" type="line"/>
      <point x="522" y="952" type="line"/>
      <point x="823" y="952" type="line"/>
      <point x="823" y="1083" type="line"/>
      <point x="523" y="1083" type="line"/>
      <point x="523" y="1437" type="line"/>
    </contour>
  </outline>
</glyph>
<glyph name="daggerdbl" format="1">
  <advance width="940.200"/>
  <unicode hex="2021"/>
  <outline>
    <contour>
      <point x="393" y="1434" type="line"/>
      <point x="393" y="1074" type="line"/>
      <point x="124" y="1074" type="line"/>
      <point x="124" y="946" type="line"/>
      <point x="393" y="946" type="line"/>
      <point x="393" y="531" type="line"/>
      <point x="123" y="531" type="line"/>
      <point x="123" y="411" type="line"/>
      <point x="393" y="411" type="line"/>
      <point x="393" y="42" type="line"/>
      <point x="536" y="42" type="line"/>
      <point x="536" y="411" type="line"/>
      <point x="801" y="411" type="line"/>
      <point x="801" y="531" type="line"/>
      <point x="536" y="531" type="line"/>
      <point x="536" y="946" type="line"/>
      <point x="802" y="946" type="line"/>
      <point x="802" y="1074" type="line"/>
      <point x="533" y="1074" type="line"/>
      <point x="533" y="1434" type="line"/>
    </contour>
  </outline>
</glyph>
<glyph name="bullet" format="1">
  <advance width="845.350"/>
  <unicode hex="2022"/>
  <outline>
    <contour>
      <point x="437" y="387" type="curve" smooth="yes"/>
      <point x="612" y="387"/>
      <point x="764" y="515"/>
      <point x="764" y="714" type="curve" smooth="yes"/>
      <point x="764" y="913"/>
      <point x="616" y="1036"/>
      <point x="442" y="1036" type="curve" smooth="yes"/>
      <point x="267" y="1036"/>
      <point x="116" y="908"/>
      <point x="116" y="709" type="curve" smooth="yes"/>
      <point x="116" y="511"/>
      <point x="262" y="387"/>
    </contour>
  </outline>
</glyph>
<glyph name="guilsinglleft" format="1">
  <advance width="568.150"/>
  <unicode hex="2039"/>
  <outline>
    <contour>
      <point x="356" y="154" type="line"/>
      <point x="516" y="154" type="line"/>
      <point x="246" y="556" type="line"/>
      <point x="522" y="967" type="line"/>
      <point x="361" y="967" type="line"/>
      <point x="76" y="556" type="line"/>
    </contour>
  </outline>
</glyph>
<glyph name="guilsinglright" format="1">
  <advance width="573.100"/>
  <unicode hex="203A"/>
  <outline>
    <contour>
      <point x="86" y="154" type="line"/>
      <point x="247" y="154" type="line"/>
      <point x="534" y="562" type="line"/>
      <point x="252" y="967" type="line"/>
      <point x="92" y="967" type="line"/>
      <point x="361" y="562" type="line"/>
    </contour>
  </outline>
</glyph>
<glyph name="fraction" format="1">
  <advance width="1101.400"/>
  <unicode hex="2044"/>
  <outline>
    <contour>
      <point x="91" y="0" type="line"/>
      <point x="254" y="0" type="line"/>
      <point x="1051" y="1475" type="line"/>
      <point x="894" y="1475" type="line"/>
    </contour>
  </outline>
</glyph>
<glyph name="foursuperior" format="1">
  <advance width="744.550"/>
  <unicode hex="2074"/>
  <outline>
    <contour>
      <point x="425" y="626" type="line"/>
      <point x="541" y="626" type="line"/>
      <point x="541" y="814" type="line"/>
      <point x="645" y="814" type="line"/>
      <point x="635" y="936" type="line"/>
      <point x="543" y="936" type="line"/>
      <point x="543" y="1447" type="line"/>
      <point x="418" y="1447" type="line"/>
      <point x="103" y="917" type="line"/>
      <point x="103" y="814" type="line"/>
      <point x="425" y="814" type="line"/>
    </contour>
    <contour>
      <point x="241" y="936" type="line"/>
      <point x="425" y="1244" type="line"/>
      <point x="424" y="936" type="line"/>
    </contour>
  </outline>
</glyph>
<glyph name="Euro" format="1">
  <advance width="1270.200"/>
  <unicode hex="20AC"/>
  <outline>
    <contour>
      <point x="476" y="1452"/>
      <point x="194" y="1254"/>
      <point x="133" y="859" type="curve"/>
      <point x="200" y="907" type="line"/>
      <point x="19" y="907" type="line"/>
      <point x="14" y="788" type="line"/>
      <point x="194" y="788" type="line"/>
      <point x="133" y="833" type="line"/>
      <point x="131" y="811"/>
      <point x="129" y="744"/>
      <point x="129" y="721" type="curve" smooth="yes"/>
      <point x="129" y="692"/>
      <point x="133" y="619"/>
      <point x="135" y="590" type="curve"/>
      <point x="194" y="632" type="line"/>
      <point x="15" y="632" type="line"/>
      <point x="10" y="512" type="line"/>
      <point x="205" y="512" type="line"/>
      <point x="139" y="553" type="line"/>
      <point x="208" y="174"/>
      <point x="485" y="-19"/>
      <point x="821" y="-19" type="curve" smooth="yes"/>
      <point x="976" y="-19"/>
      <point x="1100" y="18"/>
      <point x="1195" y="66" type="curve"/>
      <point x="1149" y="229" type="line"/>
      <point x="1065" y="189"/>
      <point x="962" y="158"/>
      <point x="847" y="158" type="curve" smooth="yes"/>
      <point x="609" y="158"/>
      <point x="426" y="281"/>
      <point x="365" y="553" type="curve"/>
      <point x="302" y="512" type="line"/>
      <point x="880" y="512" type="line"/>
      <point x="884" y="632" type="line"/>
      <point x="289" y="632" type="line"/>
      <point x="356" y="590" type="line"/>
      <point x="354" y="617"/>
      <point x="351" y="688"/>
      <point x="351" y="717" type="curve" smooth="yes"/>
      <point x="351" y="741"/>
      <point x="353" y="810"/>
      <point x="355" y="833" type="curve"/>
      <point x="286" y="788" type="line"/>
      <point x="884" y="788" type="line"/>
      <point x="889" y="907" type="line"/>
      <point x="297" y="907" type="line"/>
      <point x="360" y="859" type="line"/>
      <point x="413" y="1143"/>
      <point x="599" y="1275"/>
      <point x="830" y="1275" type="curve" smooth="yes"/>
      <point x="944" y="1275"/>
      <point x="1061" y="1243"/>
      <point x="1150" y="1190" type="curve"/>
      <point x="1218" y="1339" type="line"/>
      <point x="1118" y="1407"/>
      <point x="975" y="1452"/>
      <point x="813" y="1452" type="curve" smooth="yes"/>
    </contour>
  </outline>
</glyph>
<glyph name="trademark" format="1">
  <advance width="1711.650"/>
  <unicode hex="2122"/>
  <outline>
    <contour>
      <point x="1466" y="1437" type="line"/>
      <point x="1209" y="823" type="line"/>
      <point x="962" y="1437" type="line"/>
      <point x="797" y="1437" type="line"/>
      <point x="797" y="598" type="line"/>
      <point x="918" y="598" type="line"/>
      <point x="918" y="1251" type="line"/>
      <point x="1157" y="653" type="line"/>
      <point x="1246" y="653" type="line"/>
      <point x="1500" y="1253" type="line"/>
      <point x="1500" y="598" type="line"/>
      <point x="1622" y="598" type="line"/>
      <point x="1622" y="1437" type="line"/>
    </contour>
    <contour>
      <point x="76" y="1437" type="line"/>
      <point x="76" y="1323" type="line"/>
      <point x="323" y="1323" type="line"/>
      <point x="323" y="598" type="line"/>
      <point x="446" y="598" type="line"/>
      <point x="446" y="1323" type="line"/>
      <point x="695" y="1323" type="line"/>
      <point x="695" y="1437" type="line"/>
    </contour>
  </outline>
</glyph>
<glyph name="summation" format="1">
  <advance width="1207.050"/>
  <unicode hex="2211"/>
  <outline>
    <contour>
      <point x="101" y="1461" type="line"/>
      <point x="101" y="1353" type="line"/>
      <point x="672" y="569" type="line"/>
      <point x="80" y="-233" type="line"/>
      <point x="80" y="-336" type="line"/>
      <point x="1167" y="-336" type="line"/>
      <point x="1167" y="-169" type="line"/>
      <point x="304" y="-169" type="line"/>
      <point x="886" y="577" type="line"/>
      <point x="328" y="1301" type="line"/>
      <point x="1127" y="1301" type="line"/>
      <point x="1127" y="1461" type="line"/>
    </contour>
  </outline>
</glyph>
<glyph name="minus" format="1">
  <advance width="1181.600"/>
  <unicode hex="2212"/>
  <outline>
    <contour>
      <point x="99" y="654" type="line"/>
      <point x="99" y="499" type="line"/>
      <point x="1072" y="499" type="line"/>
      <point x="1072" y="654" type="line"/>
    </contour>
  </outline>
</glyph>
<glyph name="approxequal" format="1">
  <advance width="1209.050"/>
  <unicode hex="2248"/>
  <outline>
    <contour>
      <point x="991" y="645"/>
      <point x="936" y="589"/>
      <point x="854" y="589" type="curve" smooth="yes"/>
      <point x="795" y="589"/>
      <point x="732" y="625"/>
      <point x="654" y="668" type="curve"/>
      <point x="575" y="711"/>
      <point x="490" y="750"/>
      <point x="402" y="750" type="curve" smooth="yes"/>
      <point x="249" y="750"/>
      <point x="157" y="652"/>
      <point x="123" y="498" type="curve"/>
      <point x="221" y="443" type="line"/>
      <point x="252" y="541"/>
      <point x="306" y="607"/>
      <point x="401" y="607" type="curve" smooth="yes"/>
      <point x="460" y="607"/>
      <point x="516" y="579"/>
      <point x="581" y="540" type="curve"/>
      <point x="687" y="479"/>
      <point x="764" y="447"/>
      <point x="848" y="447" type="curve" smooth="yes"/>
      <point x="1010" y="447"/>
      <point x="1097" y="552"/>
      <point x="1130" y="698" type="curve"/>
      <point x="1036" y="750" type="line"/>
    </contour>
    <contour>
      <point x="988" y="605"/>
      <point x="934" y="550"/>
      <point x="852" y="550" type="curve" smooth="yes"/>
      <point x="798" y="550"/>
      <point x="740" y="577"/>
      <point x="653" y="626" type="curve"/>
      <point x="567" y="676"/>
      <point x="488" y="711"/>
      <point x="403" y="711" type="curve" smooth="yes"/>
      <point x="250" y="711"/>
      <point x="155" y="612"/>
      <point x="121" y="460" type="curve"/>
      <point x="220" y="407" type="line"/>
      <point x="250" y="504"/>
      <point x="303" y="570"/>
      <point x="399" y="570" type="curve" smooth="yes"/>
      <point x="458" y="570"/>
      <point x="515" y="542"/>
      <point x="580" y="503" type="curve"/>
      <point x="685" y="441"/>
      <point x="761" y="409"/>
      <point x="847" y="409" type="curve" smooth="yes"/>
      <point x="1007" y="409"/>
      <point x="1095" y="513"/>
      <point x="1129" y="660" type="curve"/>
      <point x="1034" y="711" type="line"/>
    </contour>
  </outline>
</glyph>
<glyph name="notequal" format="1">
  <advance width="1158.050"/>
  <unicode hex="2260"/>
  <outline>
    <contour>
      <point x="268" y="66" type="line"/>
      <point x="390" y="45" type="line"/>
      <point x="528" y="330" type="line"/>
      <point x="1070" y="330" type="line"/>
      <point x="1062" y="467" type="line"/>
      <point x="591" y="467" type="line"/>
      <point x="732" y="739" type="line"/>
      <point x="1070" y="739" type="line"/>
      <point x="1060" y="882" type="line"/>
      <point x="794" y="882" type="line"/>
      <point x="907" y="1137" type="line"/>
      <point x="783" y="1154" type="line"/>
      <point x="649" y="882" type="line"/>
      <point x="123" y="882" type="line"/>
      <point x="132" y="739" type="line"/>
      <point x="587" y="739" type="line"/>
      <point x="449" y="467" type="line"/>
      <point x="124" y="467" type="line"/>
      <point x="132" y="330" type="line"/>
      <point x="382" y="330" type="line"/>
    </contour>
  </outline>
</glyph>
<glyph name="lessequal" format="1">
  <advance width="1141.500"/>
  <unicode hex="2264"/>
  <outline>
    <contour>
      <point x="148" y="800" type="line"/>
      <point x="148" y="705" type="line"/>
      <point x="1029" y="263" type="line"/>
      <point x="1029" y="425" type="line"/>
      <point x="354" y="753" type="line"/>
      <point x="1029" y="1099" type="line"/>
      <point x="1029" y="1260" type="line"/>
    </contour>
    <contour>
      <point x="123" y="136" type="line"/>
      <point x="123" y="1" type="line"/>
      <point x="1050" y="1" type="line"/>
      <point x="1050" y="136" type="line"/>
    </contour>
  </outline>
</glyph>
<glyph name="greaterequal" format="1">
  <advance width="1139.700"/>
  <unicode hex="2265"/>
  <outline>
    <contour>
      <point x="153" y="1101" type="line"/>
      <point x="864" y="731" type="line"/>
      <point x="150" y="382" type="line"/>
      <point x="150" y="221" type="line"/>
      <point x="1036" y="685" type="line"/>
      <point x="1036" y="778" type="line"/>
      <point x="153" y="1262" type="line"/>
    </contour>
    <contour>
      <point x="128" y="144" type="line"/>
      <point x="128" y="6" type="line"/>
      <point x="1050" y="6" type="line"/>
      <point x="1050" y="144" type="line"/>
    </contour>
  </outline>
</glyph>
<glyph name="lozenge" format="1">
  <advance width="1119.750"/>
  <unicode hex="25CA"/>
  <outline>
    <contour>
      <point x="523" y="1509" type="line"/>
      <point x="103" y="730" type="line"/>
      <point x="516" y="-46" type="line"/>
      <point x="626" y="-46" type="line"/>
      <point x="1048" y="732" type="line"/>
      <point x="635" y="1509" type="line"/>
    </contour>
    <contour>
      <point x="686" y="1134"/>
      <point x="797" y="932"/>
      <point x="904" y="730" type="curve"/>
      <point x="793" y="527"/>
      <point x="680" y="323"/>
      <point x="569" y="120" type="curve"/>
      <point x="459" y="320"/>
      <point x="354" y="529"/>
      <point x="246" y="732" type="curve"/>
      <point x="357" y="934"/>
      <point x="469" y="1137"/>
      <point x="580" y="1338" type="curve"/>
    </contour>
  </outline>
</glyph>
<glyph name=".notdef" format="1">
  <advance width="977.650"/>
  <outline>
    <contour>
      <point x="100" y="1185" type="line"/>
      <point x="100" y="-130" type="line"/>
      <point x="906" y="-130" type="line"/>
      <point x="906" y="1185" type="line"/>
    </contour>
    <contour>
      <point x="805" y="-30" type="line"/>
      <point x="200" y="-30" type="line"/>
      <point x="200" y="1084" type="line"/>
      <point x="805" y="1084" type="line"/>
    </contour>
  </outline>
</glyph>
<glyph name="caron.alt" format="1">
  <advance width="600"/>
  <outline>
    <contour>
      <point x="208" y="1192" type="curve"/>
      <point x="337" y="1192" type="line"/>
      <point x="337" y="1192"/>
      <point x="457.354" y="1624.07"/>
      <point x="463" y="1689" type="curve"/>
      <point x="267" y="1689" type="line"/>
      <point x="267" y="1642"/>
      <point x="208" y="1192"/>
    </contour>
    <contour>
      <point x="0" y="1082" type="move" name="_caron.alt"/>
    </contour>
  </outline>
</glyph>
<glyph name="middot" format="1">
  <advance width="398"/>
  <outline>
    <component base="period" xOffset="-72" yOffset="525"/>
    <contour>
      <point x="200" y="641" type="move" name="_mid"/>
    </contour>
  </outline>
</glyph>
<glyph name="slashbar" format="1">
  <advance width="600"/>
  <outline>
    <contour>
      <point x="-3" y="287" type="line"/>
      <point x="677" y="607" type="line"/>
      <point x="677" y="758" type="line"/>
      <point x="-3" y="438" type="line"/>
    </contour>
    <contour>
      <point x="348" y="539" type="move" name="_mid"/>
    </contour>
  </outline>
</glyph>
